<svg width="160" height="160" viewBox="0 0 160 160" fill="none" xmlns="http://www.w3.org/2000/svg">
<rect width="160" height="160" fill="#E5E5E5"/>
<g clip-path="url(#clip0_2_2)">
<rect width="1512" height="2862" transform="translate(-1241 -409)" fill="white"/>
<rect x="-69.5" y="-49.5" width="299" height="609" rx="9.5" fill="white" stroke="#D6D6D6"/>
<circle cx="80" cy="80" r="80" fill="#F1F1F1"/>
<path d="M79.9993 46.6665C71.266 46.6665 64.166 53.7665 64.166 62.4998C64.166 71.0665 70.866 77.9998 79.5993 78.2998C79.866 78.2665 80.1327 78.2665 80.3327 78.2998C80.3993 78.2998 80.4327 78.2998 80.4993 78.2998C80.5327 78.2998 80.5327 78.2998 80.566 78.2998C89.0993 77.9998 95.7993 71.0665 95.8327 62.4998C95.8327 53.7665 88.7327 46.6665 79.9993 46.6665Z" fill="#B2B2B2"/>
<path d="M96.9332 87.1666C87.6332 80.9666 72.4665 80.9666 63.0999 87.1666C58.8665 89.9999 56.5332 93.8333 56.5332 97.9333C56.5332 102.033 58.8665 105.833 63.0665 108.633C67.7332 111.767 73.8665 113.333 79.9999 113.333C86.1332 113.333 92.2665 111.767 96.9332 108.633C101.133 105.8 103.467 102 103.467 97.8666C103.433 93.7666 101.133 89.9666 96.9332 87.1666Z" fill="#B2B2B2"/>
</g>
<defs>
<clipPath id="clip0_2_2">
<rect width="1512" height="2862" fill="white" transform="translate(-1241 -409)"/>
</clipPath>
</defs>
</svg>
