<svg width="26" height="30" viewBox="0 0 26 30" fill="none" xmlns="http://www.w3.org/2000/svg">
<g filter="url(#filter0_d_53_1067)">
<path d="M13 22C13.6193 22.0008 14.2235 21.8086 14.7285 21.4502C15.2335 21.0917 15.6143 20.5849 15.818 20H10.182C10.3857 20.5849 10.7665 21.0917 11.2715 21.4502C11.7765 21.8086 12.3807 22.0008 13 22ZM20 14.586V10C20 6.783 17.815 4.073 14.855 3.258C14.562 2.52 13.846 2 13 2C12.154 2 11.438 2.52 11.145 3.258C8.185 4.074 6 6.783 6 10V14.586L4.293 16.293C4.19996 16.3857 4.12617 16.4959 4.07589 16.6172C4.0256 16.7386 3.99981 16.8687 4 17V18C4 18.2652 4.10536 18.5196 4.29289 18.7071C4.48043 18.8946 4.73478 19 5 19H21C21.2652 19 21.5196 18.8946 21.7071 18.7071C21.8946 18.5196 22 18.2652 22 18V17C22.0002 16.8687 21.9744 16.7386 21.9241 16.6172C21.8738 16.4959 21.8 16.3857 21.707 16.293L20 14.586Z" fill="#1C56F2"/>
</g>
<defs>
<filter id="filter0_d_53_1067" x="-3" y="0" width="32" height="32" filterUnits="userSpaceOnUse" color-interpolation-filters="sRGB">
<feFlood flood-opacity="0" result="BackgroundImageFix"/>
<feColorMatrix in="SourceAlpha" type="matrix" values="0 0 0 0 0 0 0 0 0 0 0 0 0 0 0 0 0 0 127 0" result="hardAlpha"/>
<feOffset dy="4"/>
<feGaussianBlur stdDeviation="2"/>
<feComposite in2="hardAlpha" operator="out"/>
<feColorMatrix type="matrix" values="0 0 0 0 0 0 0 0 0 0 0 0 0 0 0 0 0 0 0.25 0"/>
<feBlend mode="normal" in2="BackgroundImageFix" result="effect1_dropShadow_53_1067"/>
<feBlend mode="normal" in="SourceGraphic" in2="effect1_dropShadow_53_1067" result="shape"/>
</filter>
</defs>
</svg>
