<svg width="24" height="25" viewBox="0 0 24 25" fill="none" xmlns="http://www.w3.org/2000/svg">
<path d="M8.46588 11.4596C9.59888 10.3266 11.5749 10.3266 12.7079 11.4596L13.4149 12.1666L14.8289 10.7526L14.1219 10.0456C13.1789 9.10157 11.9229 8.58057 10.5869 8.58057C9.25088 8.58057 7.99488 9.10157 7.05188 10.0456L4.92988 12.1666C3.99417 13.1053 3.46875 14.3766 3.46875 15.7021C3.46875 17.0275 3.99417 18.2989 4.92988 19.2376C5.39375 19.7021 5.94484 20.0704 6.55149 20.3213C7.15814 20.5722 7.80839 20.7007 8.46488 20.6996C9.12154 20.7009 9.77199 20.5725 10.3788 20.3216C10.9857 20.0707 11.5369 19.7023 12.0009 19.2376L12.7079 18.5306L11.2939 17.1166L10.5869 17.8236C10.0233 18.3846 9.26055 18.6995 8.46538 18.6995C7.67021 18.6995 6.90741 18.3846 6.34388 17.8236C5.78238 17.2603 5.46708 16.4974 5.46708 15.7021C5.46708 14.9067 5.78238 14.1438 6.34388 13.5806L8.46588 11.4596Z" fill="#005ECD"/>
<path d="M11.9999 5.09574L11.2929 5.80274L12.7069 7.21674L13.4139 6.50974C13.9774 5.94873 14.7402 5.63377 15.5354 5.63377C16.3305 5.63377 17.0933 5.94873 17.6569 6.50974C18.2184 7.07301 18.5337 7.83591 18.5337 8.63124C18.5337 9.42657 18.2184 10.1895 17.6569 10.7527L15.5349 12.8737C14.4019 14.0067 12.4259 14.0067 11.2929 12.8737L10.5859 12.1667L9.17188 13.5807L9.87887 14.2877C10.8219 15.2317 12.0779 15.7527 13.4139 15.7527C14.7499 15.7527 16.0059 15.2317 16.9489 14.2877L19.0709 12.1667C20.0066 11.228 20.532 9.95666 20.532 8.63124C20.532 7.30582 20.0066 6.03446 19.0709 5.09574C18.1324 4.15955 16.861 3.63379 15.5354 3.63379C14.2098 3.63379 12.9383 4.15955 11.9999 5.09574Z" fill="#005ECD"/>
</svg>
