<svg width="24" height="24" viewBox="0 0 24 24" fill="none" xmlns="http://www.w3.org/2000/svg">
<rect width="24" height="24" rx="12" fill="#FF8A00" fill-opacity="0.1"/>
<path d="M14.511 15.0459H9.49023C9.23136 15.0459 9.02148 15.2558 9.02148 15.5146C9.02148 15.7735 9.23136 15.9834 9.49023 15.9834H14.511C14.7699 15.9834 14.9798 15.7735 14.9798 15.5146C14.9798 15.2558 14.7699 15.0459 14.511 15.0459Z" fill="#FF8A00"/>
<path d="M17.5224 4H6.47656C6.21769 4 6.00781 4.20987 6.00781 4.46875V18.1505C6.00781 18.2748 6.05722 18.394 6.14512 18.4819L7.52587 19.8627C7.7089 20.0457 8.00572 20.0457 8.18878 19.8627L9.23806 18.8134L10.2873 19.8627C10.3752 19.9506 10.4944 20 10.6188 20C10.7431 20 10.8623 19.9506 10.9502 19.8627L11.9995 18.8134L13.0487 19.8627C13.1366 19.9506 13.2559 20 13.3802 20C13.5045 20 13.6237 19.9506 13.7116 19.8627L14.7609 18.8134L15.8102 19.8627C15.9017 19.9542 16.0216 20 16.1416 20C16.2616 20 16.3815 19.9543 16.4731 19.8627L17.8538 18.4819C17.9417 18.394 17.9911 18.2748 17.9911 18.1505V4.46875C17.9911 4.20987 17.7813 4 17.5224 4ZM16.1416 18.8683L15.0923 17.819C15.0044 17.7311 14.8852 17.6817 14.7609 17.6817C14.6365 17.6817 14.5173 17.7311 14.4294 17.819L13.3801 18.8683L12.3309 17.819C12.1478 17.636 11.851 17.636 11.668 17.819L10.6187 18.8683L9.56943 17.819C9.48152 17.7311 9.36231 17.6817 9.23796 17.6817C9.11365 17.6817 8.99443 17.7311 8.90653 17.819L7.85725 18.8683L6.94525 17.9563V4.9375H17.0536V17.9563H17.0536L16.1416 18.8683Z" fill="#FF8A00"/>
<path d="M13.8592 7.33594C13.984 7.33594 14.0833 7.3785 14.1571 7.46362C14.2366 7.54307 14.2763 7.64806 14.2763 7.77858V12.9796C14.2763 13.1101 14.2366 13.2179 14.1571 13.3031C14.0777 13.3825 13.9755 13.4222 13.8507 13.4222C13.7031 13.4222 13.5896 13.3655 13.5102 13.252L10.1734 8.85113V12.9796C10.1734 13.1101 10.1336 13.2179 10.0542 13.3031C9.98041 13.3825 9.88109 13.4222 9.75625 13.4222C9.6314 13.4222 9.53209 13.3825 9.45832 13.3031C9.38454 13.2236 9.34766 13.1158 9.34766 12.9796V7.77858C9.34766 7.64806 9.38738 7.54307 9.46683 7.46362C9.54628 7.3785 9.64842 7.33594 9.77327 7.33594C9.92082 7.33594 10.0343 7.39269 10.1138 7.50618L13.4506 11.9156V7.77858C13.4506 7.64806 13.4875 7.54307 13.5613 7.46362C13.635 7.3785 13.7343 7.33594 13.8592 7.33594Z" fill="#FF8A00"/>
</svg>
