<svg width="51" height="50" viewBox="0 0 51 50" fill="none" xmlns="http://www.w3.org/2000/svg">
<path d="M33.4173 4.60419C32.5632 3.75003 31.084 4.33336 31.084 5.52086V12.7917C31.084 15.8334 33.6673 18.3542 36.8132 18.3542C38.7923 18.375 41.5423 18.375 43.8965 18.375C45.084 18.375 45.709 16.9792 44.8756 16.1459C41.8756 13.125 36.5007 7.68753 33.4173 4.60419Z" fill="#1C56F2"/>
<path d="M43.209 21.2295H37.1882C32.2507 21.2295 28.2298 17.2087 28.2298 12.2712V6.25033C28.2298 5.10449 27.2923 4.16699 26.1465 4.16699H17.3132C10.8965 4.16699 5.70898 8.33366 5.70898 15.7712V34.2295C5.70898 41.667 10.8965 45.8337 17.3132 45.8337H33.6882C40.1048 45.8337 45.2923 41.667 45.2923 34.2295V23.3128C45.2923 22.167 44.3548 21.2295 43.209 21.2295ZM24.459 36.9795H16.1257C15.2715 36.9795 14.5632 36.2712 14.5632 35.417C14.5632 34.5628 15.2715 33.8545 16.1257 33.8545H24.459C25.3132 33.8545 26.0215 34.5628 26.0215 35.417C26.0215 36.2712 25.3132 36.9795 24.459 36.9795ZM28.6257 28.6462H16.1257C15.2715 28.6462 14.5632 27.9378 14.5632 27.0837C14.5632 26.2295 15.2715 25.5212 16.1257 25.5212H28.6257C29.4798 25.5212 30.1882 26.2295 30.1882 27.0837C30.1882 27.9378 29.4798 28.6462 28.6257 28.6462Z" fill="#1C56F2"/>
</svg>
