<svg width="303" height="197" viewBox="0 0 303 197" fill="none" xmlns="http://www.w3.org/2000/svg">
<path d="M151.5 82.5C153.822 82.5029 156.088 81.7822 157.982 80.4381C159.876 79.094 161.304 77.1932 162.068 75H140.933C141.696 77.1932 143.124 79.094 145.018 80.4381C146.912 81.7822 149.178 82.5029 151.5 82.5ZM177.75 54.6975V37.5C177.75 25.4363 169.556 15.2738 158.456 12.2175C157.358 9.45 154.673 7.5 151.5 7.5C148.328 7.5 145.643 9.45 144.544 12.2175C133.444 15.2775 125.25 25.4363 125.25 37.5V54.6975L118.849 61.0988C118.5 61.4464 118.223 61.8596 118.035 62.3146C117.846 62.7697 117.749 63.2575 117.75 63.75V67.5C117.75 68.4946 118.145 69.4484 118.848 70.1517C119.552 70.8549 120.505 71.25 121.5 71.25H181.5C182.495 71.25 183.448 70.8549 184.152 70.1517C184.855 69.4484 185.25 68.4946 185.25 67.5V63.75C185.251 63.2575 185.154 62.7697 184.965 62.3146C184.777 61.8596 184.5 61.4464 184.151 61.0988L177.75 54.6975Z" fill="#DDDDDD"/>
<path d="M29.992 133V116.2H33.208L43.12 128.296H41.56V116.2H45.4V133H42.208L32.272 120.904H33.832V133H29.992ZM55.2548 133.192C53.8788 133.192 52.6548 132.904 51.5828 132.328C50.5268 131.752 49.6868 130.968 49.0628 129.976C48.4548 128.968 48.1508 127.824 48.1508 126.544C48.1508 125.248 48.4548 124.104 49.0628 123.112C49.6868 122.104 50.5268 121.32 51.5828 120.76C52.6548 120.184 53.8788 119.896 55.2548 119.896C56.6148 119.896 57.8308 120.184 58.9028 120.76C59.9748 121.32 60.8148 122.096 61.4228 123.088C62.0308 124.08 62.3348 125.232 62.3348 126.544C62.3348 127.824 62.0308 128.968 61.4228 129.976C60.8148 130.968 59.9748 131.752 58.9028 132.328C57.8308 132.904 56.6148 133.192 55.2548 133.192ZM55.2548 130.12C55.8788 130.12 56.4388 129.976 56.9348 129.688C57.4308 129.4 57.8228 128.992 58.1108 128.464C58.3988 127.92 58.5428 127.28 58.5428 126.544C58.5428 125.792 58.3988 125.152 58.1108 124.624C57.8228 124.096 57.4308 123.688 56.9348 123.4C56.4388 123.112 55.8788 122.968 55.2548 122.968C54.6308 122.968 54.0708 123.112 53.5748 123.4C53.0788 123.688 52.6788 124.096 52.3748 124.624C52.0868 125.152 51.9428 125.792 51.9428 126.544C51.9428 127.28 52.0868 127.92 52.3748 128.464C52.6788 128.992 53.0788 129.4 53.5748 129.688C54.0708 129.976 54.6308 130.12 55.2548 130.12ZM79.4823 119.896C80.5063 119.896 81.4183 120.104 82.2183 120.52C83.0343 120.92 83.6743 121.544 84.1383 122.392C84.6023 123.224 84.8343 124.296 84.8343 125.608V133H81.0903V126.184C81.0903 125.144 80.8583 124.376 80.3943 123.88C79.9463 123.384 79.3063 123.136 78.4743 123.136C77.8823 123.136 77.3463 123.264 76.8663 123.52C76.4023 123.76 76.0343 124.136 75.7623 124.648C75.5063 125.16 75.3783 125.816 75.3783 126.616V133H71.6343V120.088H75.2103V123.664L74.5383 122.584C75.0023 121.72 75.6663 121.056 76.5303 120.592C77.3943 120.128 78.3783 119.896 79.4823 119.896ZM94.4658 133.192C93.0898 133.192 91.8658 132.904 90.7938 132.328C89.7378 131.752 88.8978 130.968 88.2738 129.976C87.6658 128.968 87.3618 127.824 87.3618 126.544C87.3618 125.248 87.6658 124.104 88.2738 123.112C88.8978 122.104 89.7378 121.32 90.7938 120.76C91.8658 120.184 93.0898 119.896 94.4658 119.896C95.8258 119.896 97.0418 120.184 98.1138 120.76C99.1858 121.32 100.026 122.096 100.634 123.088C101.242 124.08 101.546 125.232 101.546 126.544C101.546 127.824 101.242 128.968 100.634 129.976C100.026 130.968 99.1858 131.752 98.1138 132.328C97.0418 132.904 95.8258 133.192 94.4658 133.192ZM94.4658 130.12C95.0898 130.12 95.6498 129.976 96.1458 129.688C96.6418 129.4 97.0338 128.992 97.3218 128.464C97.6098 127.92 97.7538 127.28 97.7538 126.544C97.7538 125.792 97.6098 125.152 97.3218 124.624C97.0338 124.096 96.6418 123.688 96.1458 123.4C95.6498 123.112 95.0898 122.968 94.4658 122.968C93.8418 122.968 93.2818 123.112 92.7858 123.4C92.2898 123.688 91.8898 124.096 91.5858 124.624C91.2978 125.152 91.1538 125.792 91.1538 126.544C91.1538 127.28 91.2978 127.92 91.5858 128.464C91.8898 128.992 92.2898 129.4 92.7858 129.688C93.2818 129.976 93.8418 130.12 94.4658 130.12ZM109.328 133.192C107.808 133.192 106.624 132.808 105.776 132.04C104.928 131.256 104.504 130.096 104.504 128.56V117.232H108.248V128.512C108.248 129.056 108.392 129.48 108.68 129.784C108.968 130.072 109.36 130.216 109.856 130.216C110.448 130.216 110.952 130.056 111.368 129.736L112.376 132.376C111.992 132.648 111.528 132.856 110.984 133C110.456 133.128 109.904 133.192 109.328 133.192ZM102.512 123.256V120.376H111.464V123.256H102.512ZM114.478 133V120.088H118.222V133H114.478ZM116.35 118.288C115.662 118.288 115.102 118.088 114.67 117.688C114.238 117.288 114.022 116.792 114.022 116.2C114.022 115.608 114.238 115.112 114.67 114.712C115.102 114.312 115.662 114.112 116.35 114.112C117.038 114.112 117.598 114.304 118.03 114.688C118.462 115.056 118.678 115.536 118.678 116.128C118.678 116.752 118.462 117.272 118.03 117.688C117.614 118.088 117.054 118.288 116.35 118.288ZM122.153 133V119.8C122.153 118.344 122.585 117.184 123.449 116.32C124.313 115.44 125.545 115 127.145 115C127.689 115 128.209 115.056 128.705 115.168C129.217 115.28 129.649 115.456 130.001 115.696L129.017 118.408C128.809 118.264 128.577 118.152 128.321 118.072C128.065 117.992 127.793 117.952 127.505 117.952C126.961 117.952 126.537 118.112 126.233 118.432C125.945 118.736 125.801 119.2 125.801 119.824V121.024L125.897 122.632V133H122.153ZM120.161 123.256V120.376H129.113V123.256H120.161ZM131.225 133V120.088H134.969V133H131.225ZM133.097 118.288C132.409 118.288 131.849 118.088 131.417 117.688C130.985 117.288 130.769 116.792 130.769 116.2C130.769 115.608 130.985 115.112 131.417 114.712C131.849 114.312 132.409 114.112 133.097 114.112C133.785 114.112 134.345 114.304 134.777 114.688C135.209 115.056 135.425 115.536 135.425 116.128C135.425 116.752 135.209 117.272 134.777 117.688C134.361 118.088 133.801 118.288 133.097 118.288ZM144.671 133.192C143.279 133.192 142.039 132.912 140.951 132.352C139.863 131.776 139.007 130.984 138.383 129.976C137.775 128.968 137.471 127.824 137.471 126.544C137.471 125.248 137.775 124.104 138.383 123.112C139.007 122.104 139.863 121.32 140.951 120.76C142.039 120.184 143.279 119.896 144.671 119.896C146.031 119.896 147.215 120.184 148.223 120.76C149.231 121.32 149.975 122.128 150.455 123.184L147.551 124.744C147.215 124.136 146.791 123.688 146.279 123.4C145.783 123.112 145.239 122.968 144.647 122.968C144.007 122.968 143.431 123.112 142.919 123.4C142.407 123.688 141.999 124.096 141.695 124.624C141.407 125.152 141.263 125.792 141.263 126.544C141.263 127.296 141.407 127.936 141.695 128.464C141.999 128.992 142.407 129.4 142.919 129.688C143.431 129.976 144.007 130.12 144.647 130.12C145.239 130.12 145.783 129.984 146.279 129.712C146.791 129.424 147.215 128.968 147.551 128.344L150.455 129.928C149.975 130.968 149.231 131.776 148.223 132.352C147.215 132.912 146.031 133.192 144.671 133.192ZM160.531 133V130.48L160.291 129.928V125.416C160.291 124.616 160.043 123.992 159.547 123.544C159.067 123.096 158.323 122.872 157.315 122.872C156.627 122.872 155.947 122.984 155.275 123.208C154.619 123.416 154.059 123.704 153.595 124.072L152.251 121.456C152.955 120.96 153.803 120.576 154.795 120.304C155.787 120.032 156.795 119.896 157.819 119.896C159.787 119.896 161.315 120.36 162.403 121.288C163.491 122.216 164.035 123.664 164.035 125.632V133H160.531ZM156.595 133.192C155.587 133.192 154.723 133.024 154.003 132.688C153.283 132.336 152.731 131.864 152.347 131.272C151.963 130.68 151.771 130.016 151.771 129.28C151.771 128.512 151.955 127.84 152.323 127.264C152.707 126.688 153.307 126.24 154.123 125.92C154.939 125.584 156.003 125.416 157.315 125.416H160.747V127.6H157.723C156.843 127.6 156.235 127.744 155.899 128.032C155.579 128.32 155.419 128.68 155.419 129.112C155.419 129.592 155.603 129.976 155.971 130.264C156.355 130.536 156.875 130.672 157.531 130.672C158.155 130.672 158.715 130.528 159.211 130.24C159.707 129.936 160.067 129.496 160.291 128.92L160.867 130.648C160.595 131.48 160.099 132.112 159.379 132.544C158.659 132.976 157.731 133.192 156.595 133.192ZM172.703 133.192C171.183 133.192 169.999 132.808 169.151 132.04C168.303 131.256 167.879 130.096 167.879 128.56V117.232H171.623V128.512C171.623 129.056 171.767 129.48 172.055 129.784C172.343 130.072 172.735 130.216 173.231 130.216C173.823 130.216 174.327 130.056 174.743 129.736L175.751 132.376C175.367 132.648 174.903 132.856 174.359 133C173.831 133.128 173.279 133.192 172.703 133.192ZM165.887 123.256V120.376H174.839V123.256H165.887ZM177.853 133V120.088H181.597V133H177.853ZM179.725 118.288C179.037 118.288 178.477 118.088 178.045 117.688C177.613 117.288 177.397 116.792 177.397 116.2C177.397 115.608 177.613 115.112 178.045 114.712C178.477 114.312 179.037 114.112 179.725 114.112C180.413 114.112 180.973 114.304 181.405 114.688C181.837 115.056 182.053 115.536 182.053 116.128C182.053 116.752 181.837 117.272 181.405 117.688C180.989 118.088 180.429 118.288 179.725 118.288ZM191.216 133.192C189.84 133.192 188.616 132.904 187.544 132.328C186.488 131.752 185.648 130.968 185.024 129.976C184.416 128.968 184.112 127.824 184.112 126.544C184.112 125.248 184.416 124.104 185.024 123.112C185.648 122.104 186.488 121.32 187.544 120.76C188.616 120.184 189.84 119.896 191.216 119.896C192.576 119.896 193.792 120.184 194.864 120.76C195.936 121.32 196.776 122.096 197.384 123.088C197.992 124.08 198.296 125.232 198.296 126.544C198.296 127.824 197.992 128.968 197.384 129.976C196.776 130.968 195.936 131.752 194.864 132.328C193.792 132.904 192.576 133.192 191.216 133.192ZM191.216 130.12C191.84 130.12 192.4 129.976 192.896 129.688C193.392 129.4 193.784 128.992 194.072 128.464C194.36 127.92 194.504 127.28 194.504 126.544C194.504 125.792 194.36 125.152 194.072 124.624C193.784 124.096 193.392 123.688 192.896 123.4C192.4 123.112 191.84 122.968 191.216 122.968C190.592 122.968 190.032 123.112 189.536 123.4C189.04 123.688 188.64 124.096 188.336 124.624C188.048 125.152 187.904 125.792 187.904 126.544C187.904 127.28 188.048 127.92 188.336 128.464C188.64 128.992 189.04 129.4 189.536 129.688C190.032 129.976 190.592 130.12 191.216 130.12ZM208.646 119.896C209.67 119.896 210.582 120.104 211.382 120.52C212.198 120.92 212.838 121.544 213.302 122.392C213.766 123.224 213.998 124.296 213.998 125.608V133H210.254V126.184C210.254 125.144 210.022 124.376 209.558 123.88C209.11 123.384 208.47 123.136 207.638 123.136C207.046 123.136 206.51 123.264 206.03 123.52C205.566 123.76 205.198 124.136 204.926 124.648C204.67 125.16 204.542 125.816 204.542 126.616V133H200.798V120.088H204.374V123.664L203.702 122.584C204.166 121.72 204.83 121.056 205.694 120.592C206.558 120.128 207.542 119.896 208.646 119.896ZM221.736 133.192C220.632 133.192 219.568 133.064 218.544 132.808C217.536 132.536 216.736 132.2 216.144 131.8L217.392 129.112C217.984 129.48 218.68 129.784 219.48 130.024C220.296 130.248 221.096 130.36 221.88 130.36C222.744 130.36 223.352 130.256 223.704 130.048C224.072 129.84 224.256 129.552 224.256 129.184C224.256 128.88 224.112 128.656 223.824 128.512C223.552 128.352 223.184 128.232 222.72 128.152C222.256 128.072 221.744 127.992 221.184 127.912C220.64 127.832 220.088 127.728 219.528 127.6C218.968 127.456 218.456 127.248 217.992 126.976C217.528 126.704 217.152 126.336 216.864 125.872C216.592 125.408 216.456 124.808 216.456 124.072C216.456 123.256 216.688 122.536 217.152 121.912C217.632 121.288 218.32 120.8 219.216 120.448C220.112 120.08 221.184 119.896 222.432 119.896C223.312 119.896 224.208 119.992 225.12 120.184C226.032 120.376 226.792 120.656 227.4 121.024L226.152 123.688C225.528 123.32 224.896 123.072 224.256 122.944C223.632 122.8 223.024 122.728 222.432 122.728C221.6 122.728 220.992 122.84 220.608 123.064C220.224 123.288 220.032 123.576 220.032 123.928C220.032 124.248 220.168 124.488 220.44 124.648C220.728 124.808 221.104 124.936 221.568 125.032C222.032 125.128 222.536 125.216 223.08 125.296C223.64 125.36 224.2 125.464 224.76 125.608C225.32 125.752 225.824 125.96 226.272 126.232C226.736 126.488 227.112 126.848 227.4 127.312C227.688 127.76 227.832 128.352 227.832 129.088C227.832 129.888 227.592 130.6 227.112 131.224C226.632 131.832 225.936 132.312 225.024 132.664C224.128 133.016 223.032 133.192 221.736 133.192ZM238.571 137.848C237.899 137.848 237.235 137.744 236.579 137.536C235.923 137.328 235.387 137.04 234.971 136.672L236.339 134.008C236.627 134.264 236.955 134.464 237.323 134.608C237.707 134.752 238.083 134.824 238.451 134.824C238.979 134.824 239.395 134.696 239.699 134.44C240.019 134.2 240.307 133.792 240.563 133.216L241.235 131.632L241.523 131.224L246.155 120.088H249.755L243.923 133.792C243.507 134.832 243.027 135.648 242.483 136.24C241.955 136.832 241.363 137.248 240.707 137.488C240.067 137.728 239.355 137.848 238.571 137.848ZM240.779 133.504L235.019 120.088H238.883L243.347 130.888L240.779 133.504ZM257.339 133.192C255.867 133.192 254.571 132.904 253.451 132.328C252.347 131.752 251.491 130.968 250.883 129.976C250.275 128.968 249.971 127.824 249.971 126.544C249.971 125.248 250.267 124.104 250.859 123.112C251.467 122.104 252.291 121.32 253.331 120.76C254.371 120.184 255.547 119.896 256.859 119.896C258.123 119.896 259.259 120.168 260.267 120.712C261.291 121.24 262.099 122.008 262.691 123.016C263.283 124.008 263.579 125.2 263.579 126.592C263.579 126.736 263.571 126.904 263.555 127.096C263.539 127.272 263.523 127.44 263.507 127.6H253.019V125.416H261.539L260.099 126.064C260.099 125.392 259.963 124.808 259.691 124.312C259.419 123.816 259.043 123.432 258.563 123.16C258.083 122.872 257.523 122.728 256.883 122.728C256.243 122.728 255.675 122.872 255.179 123.16C254.699 123.432 254.323 123.824 254.051 124.336C253.779 124.832 253.643 125.424 253.643 126.112V126.688C253.643 127.392 253.795 128.016 254.099 128.56C254.419 129.088 254.859 129.496 255.419 129.784C255.995 130.056 256.667 130.192 257.435 130.192C258.123 130.192 258.723 130.088 259.235 129.88C259.763 129.672 260.243 129.36 260.675 128.944L262.667 131.104C262.075 131.776 261.331 132.296 260.435 132.664C259.539 133.016 258.507 133.192 257.339 133.192ZM271.352 133.192C269.832 133.192 268.648 132.808 267.8 132.04C266.952 131.256 266.528 130.096 266.528 128.56V117.232H270.272V128.512C270.272 129.056 270.416 129.48 270.704 129.784C270.992 130.072 271.384 130.216 271.88 130.216C272.472 130.216 272.976 130.056 273.392 129.736L274.4 132.376C274.016 132.648 273.552 132.856 273.008 133C272.48 133.128 271.928 133.192 271.352 133.192ZM264.536 123.256V120.376H273.488V123.256H264.536Z" fill="#6B6B6B"/>
<path d="M16.9591 167L13.2151 155.8H14.8631L18.3031 166.136H17.4711L21.0391 155.8H22.5111L25.9991 166.136H25.1991L28.6871 155.8H30.2071L26.4631 167H24.7831L21.5191 157.416H21.9511L18.6711 167H16.9591ZM36.7028 158.44C37.3961 158.44 38.0041 158.573 38.5268 158.84C39.0601 159.107 39.4761 159.512 39.7748 160.056C40.0734 160.6 40.2228 161.288 40.2228 162.12V167H38.6868V162.296C38.6868 161.475 38.4841 160.856 38.0788 160.44C37.6841 160.024 37.1241 159.816 36.3988 159.816C35.8548 159.816 35.3801 159.923 34.9748 160.136C34.5694 160.349 34.2548 160.664 34.0308 161.08C33.8174 161.496 33.7108 162.013 33.7108 162.632V167H32.1748V155.128H33.7108V160.808L33.4068 160.2C33.6841 159.645 34.1108 159.213 34.6868 158.904C35.2628 158.595 35.9348 158.44 36.7028 158.44ZM46.8414 167.096C45.9347 167.096 45.1347 166.909 44.4414 166.536C43.7587 166.163 43.2254 165.651 42.8414 165C42.468 164.349 42.2814 163.603 42.2814 162.76C42.2814 161.917 42.4627 161.171 42.8254 160.52C43.1987 159.869 43.7054 159.363 44.3454 159C44.996 158.627 45.7267 158.44 46.5374 158.44C47.3587 158.44 48.084 158.621 48.7134 158.984C49.3427 159.347 49.8334 159.859 50.1854 160.52C50.548 161.171 50.7294 161.933 50.7294 162.808C50.7294 162.872 50.724 162.947 50.7134 163.032C50.7134 163.117 50.708 163.197 50.6974 163.272H43.4814V162.168H49.8974L49.2734 162.552C49.284 162.008 49.172 161.523 48.9374 161.096C48.7027 160.669 48.3774 160.339 47.9614 160.104C47.556 159.859 47.0814 159.736 46.5374 159.736C46.004 159.736 45.5294 159.859 45.1134 160.104C44.6974 160.339 44.372 160.675 44.1374 161.112C43.9027 161.539 43.7854 162.029 43.7854 162.584V162.84C43.7854 163.405 43.9134 163.912 44.1694 164.36C44.436 164.797 44.804 165.139 45.2734 165.384C45.7427 165.629 46.2814 165.752 46.8894 165.752C47.3907 165.752 47.844 165.667 48.2494 165.496C48.6654 165.325 49.028 165.069 49.3374 164.728L50.1854 165.72C49.8014 166.168 49.3214 166.509 48.7454 166.744C48.18 166.979 47.5454 167.096 46.8414 167.096ZM57.3903 158.44C58.0836 158.44 58.6916 158.573 59.2143 158.84C59.7476 159.107 60.1636 159.512 60.4623 160.056C60.7609 160.6 60.9103 161.288 60.9103 162.12V167H59.3743V162.296C59.3743 161.475 59.1716 160.856 58.7663 160.44C58.3716 160.024 57.8116 159.816 57.0863 159.816C56.5423 159.816 56.0676 159.923 55.6623 160.136C55.2569 160.349 54.9423 160.664 54.7183 161.08C54.5049 161.496 54.3983 162.013 54.3983 162.632V167H52.8623V158.52H54.3343V160.808L54.0943 160.2C54.3716 159.645 54.7983 159.213 55.3743 158.904C55.9503 158.595 56.6223 158.44 57.3903 158.44ZM68.4178 170.2C68.0124 170.2 67.6178 170.131 67.2338 169.992C66.8498 169.864 66.5191 169.672 66.2417 169.416L66.8978 168.264C67.1111 168.467 67.3458 168.621 67.6018 168.728C67.8578 168.835 68.1298 168.888 68.4178 168.888C68.7911 168.888 69.1004 168.792 69.3458 168.6C69.5911 168.408 69.8204 168.067 70.0338 167.576L70.5618 166.408L70.7218 166.216L74.0498 158.52H75.5538L71.4418 167.848C71.1964 168.445 70.9191 168.915 70.6098 169.256C70.3111 169.597 69.9804 169.837 69.6178 169.976C69.2551 170.125 68.8551 170.2 68.4178 170.2ZM70.4338 167.272L66.5617 158.52H68.1618L71.4578 166.072L70.4338 167.272ZM80.3849 167.096C79.5315 167.096 78.7742 166.909 78.1129 166.536C77.4515 166.163 76.9289 165.651 76.5449 165C76.1609 164.339 75.9689 163.592 75.9689 162.76C75.9689 161.917 76.1609 161.171 76.5449 160.52C76.9289 159.869 77.4515 159.363 78.1129 159C78.7742 158.627 79.5315 158.44 80.3849 158.44C81.2275 158.44 81.9795 158.627 82.6409 159C83.3129 159.363 83.8355 159.869 84.2089 160.52C84.5929 161.16 84.7849 161.907 84.7849 162.76C84.7849 163.603 84.5929 164.349 84.2089 165C83.8355 165.651 83.3129 166.163 82.6409 166.536C81.9795 166.909 81.2275 167.096 80.3849 167.096ZM80.3849 165.752C80.9289 165.752 81.4142 165.629 81.8409 165.384C82.2782 165.139 82.6195 164.792 82.8649 164.344C83.1102 163.885 83.2329 163.357 83.2329 162.76C83.2329 162.152 83.1102 161.629 82.8649 161.192C82.6195 160.744 82.2782 160.397 81.8409 160.152C81.4142 159.907 80.9289 159.784 80.3849 159.784C79.8409 159.784 79.3555 159.907 78.9289 160.152C78.5022 160.397 78.1609 160.744 77.9049 161.192C77.6489 161.629 77.5209 162.152 77.5209 162.76C77.5209 163.357 77.6489 163.885 77.9049 164.344C78.1609 164.792 78.5022 165.139 78.9289 165.384C79.3555 165.629 79.8409 165.752 80.3849 165.752ZM90.4771 167.096C89.7518 167.096 89.1118 166.963 88.5571 166.696C88.0131 166.429 87.5865 166.024 87.2771 165.48C86.9785 164.925 86.8291 164.232 86.8291 163.4V158.52H88.3651V163.224C88.3651 164.056 88.5625 164.68 88.9571 165.096C89.3625 165.512 89.9278 165.72 90.6531 165.72C91.1865 165.72 91.6505 165.613 92.0451 165.4C92.4398 165.176 92.7438 164.856 92.9571 164.44C93.1705 164.013 93.2771 163.501 93.2771 162.904V158.52H94.8131V167H93.3571V164.712L93.5971 165.32C93.3198 165.885 92.9038 166.323 92.3491 166.632C91.7945 166.941 91.1705 167.096 90.4771 167.096ZM105.746 170.2C104.967 170.2 104.21 170.088 103.474 169.864C102.749 169.651 102.157 169.341 101.698 168.936L102.434 167.752C102.829 168.093 103.314 168.36 103.89 168.552C104.466 168.755 105.069 168.856 105.698 168.856C106.701 168.856 107.437 168.621 107.906 168.152C108.375 167.683 108.61 166.968 108.61 166.008V164.216L108.77 162.536L108.69 160.84V158.52H110.146V165.848C110.146 167.341 109.773 168.44 109.026 169.144C108.279 169.848 107.186 170.2 105.746 170.2ZM105.554 166.648C104.733 166.648 103.997 166.477 103.346 166.136C102.706 165.784 102.194 165.299 101.81 164.68C101.437 164.061 101.25 163.347 101.25 162.536C101.25 161.715 101.437 161 101.81 160.392C102.194 159.773 102.706 159.293 103.346 158.952C103.997 158.611 104.733 158.44 105.554 158.44C106.279 158.44 106.941 158.589 107.538 158.888C108.135 159.176 108.61 159.624 108.962 160.232C109.325 160.84 109.506 161.608 109.506 162.536C109.506 163.453 109.325 164.216 108.962 164.824C108.61 165.432 108.135 165.891 107.538 166.2C106.941 166.499 106.279 166.648 105.554 166.648ZM105.73 165.304C106.295 165.304 106.797 165.187 107.234 164.952C107.671 164.717 108.013 164.392 108.258 163.976C108.514 163.56 108.642 163.08 108.642 162.536C108.642 161.992 108.514 161.512 108.258 161.096C108.013 160.68 107.671 160.36 107.234 160.136C106.797 159.901 106.295 159.784 105.73 159.784C105.165 159.784 104.658 159.901 104.21 160.136C103.773 160.36 103.426 160.68 103.17 161.096C102.925 161.512 102.802 161.992 102.802 162.536C102.802 163.08 102.925 163.56 103.17 163.976C103.426 164.392 103.773 164.717 104.21 164.952C104.658 165.187 105.165 165.304 105.73 165.304ZM116.857 167.096C115.95 167.096 115.15 166.909 114.457 166.536C113.774 166.163 113.241 165.651 112.857 165C112.484 164.349 112.297 163.603 112.297 162.76C112.297 161.917 112.478 161.171 112.841 160.52C113.214 159.869 113.721 159.363 114.361 159C115.012 158.627 115.742 158.44 116.553 158.44C117.374 158.44 118.1 158.621 118.729 158.984C119.358 159.347 119.849 159.859 120.201 160.52C120.564 161.171 120.745 161.933 120.745 162.808C120.745 162.872 120.74 162.947 120.729 163.032C120.729 163.117 120.724 163.197 120.713 163.272H113.497V162.168H119.913L119.289 162.552C119.3 162.008 119.188 161.523 118.953 161.096C118.718 160.669 118.393 160.339 117.977 160.104C117.572 159.859 117.097 159.736 116.553 159.736C116.02 159.736 115.545 159.859 115.129 160.104C114.713 160.339 114.388 160.675 114.153 161.112C113.918 161.539 113.801 162.029 113.801 162.584V162.84C113.801 163.405 113.929 163.912 114.185 164.36C114.452 164.797 114.82 165.139 115.289 165.384C115.758 165.629 116.297 165.752 116.905 165.752C117.406 165.752 117.86 165.667 118.265 165.496C118.681 165.325 119.044 165.069 119.353 164.728L120.201 165.72C119.817 166.168 119.337 166.509 118.761 166.744C118.196 166.979 117.561 167.096 116.857 167.096ZM125.79 167.096C124.937 167.096 124.275 166.867 123.806 166.408C123.337 165.949 123.102 165.293 123.102 164.44V156.664H124.638V164.376C124.638 164.835 124.75 165.187 124.974 165.432C125.209 165.677 125.539 165.8 125.966 165.8C126.446 165.8 126.846 165.667 127.166 165.4L127.646 166.504C127.411 166.707 127.129 166.856 126.798 166.952C126.478 167.048 126.142 167.096 125.79 167.096ZM121.662 159.784V158.52H127.07V159.784H121.662ZM138.328 158.44C139.021 158.44 139.629 158.573 140.152 158.84C140.685 159.107 141.101 159.512 141.4 160.056C141.698 160.6 141.848 161.288 141.848 162.12V167H140.312V162.296C140.312 161.475 140.109 160.856 139.704 160.44C139.309 160.024 138.749 159.816 138.024 159.816C137.48 159.816 137.005 159.923 136.6 160.136C136.194 160.349 135.88 160.664 135.656 161.08C135.442 161.496 135.336 162.013 135.336 162.632V167H133.8V158.52H135.272V160.808L135.032 160.2C135.309 159.645 135.736 159.213 136.312 158.904C136.888 158.595 137.56 158.44 138.328 158.44ZM148.322 167.096C147.469 167.096 146.712 166.909 146.05 166.536C145.389 166.163 144.866 165.651 144.482 165C144.098 164.339 143.906 163.592 143.906 162.76C143.906 161.917 144.098 161.171 144.482 160.52C144.866 159.869 145.389 159.363 146.05 159C146.712 158.627 147.469 158.44 148.322 158.44C149.165 158.44 149.917 158.627 150.578 159C151.25 159.363 151.773 159.869 152.146 160.52C152.53 161.16 152.722 161.907 152.722 162.76C152.722 163.603 152.53 164.349 152.146 165C151.773 165.651 151.25 166.163 150.578 166.536C149.917 166.909 149.165 167.096 148.322 167.096ZM148.322 165.752C148.866 165.752 149.352 165.629 149.778 165.384C150.216 165.139 150.557 164.792 150.802 164.344C151.048 163.885 151.17 163.357 151.17 162.76C151.17 162.152 151.048 161.629 150.802 161.192C150.557 160.744 150.216 160.397 149.778 160.152C149.352 159.907 148.866 159.784 148.322 159.784C147.778 159.784 147.293 159.907 146.866 160.152C146.44 160.397 146.098 160.744 145.842 161.192C145.586 161.629 145.458 162.152 145.458 162.76C145.458 163.357 145.586 163.885 145.842 164.344C146.098 164.792 146.44 165.139 146.866 165.384C147.293 165.629 147.778 165.752 148.322 165.752ZM157.759 167.096C156.905 167.096 156.244 166.867 155.775 166.408C155.305 165.949 155.071 165.293 155.071 164.44V156.664H156.607V164.376C156.607 164.835 156.719 165.187 156.943 165.432C157.177 165.677 157.508 165.8 157.935 165.8C158.415 165.8 158.815 165.667 159.135 165.4L159.615 166.504C159.38 166.707 159.097 166.856 158.767 166.952C158.447 167.048 158.111 167.096 157.759 167.096ZM153.631 159.784V158.52H159.039V159.784H153.631ZM161.472 167V158.52H163.008V167H161.472ZM162.24 156.888C161.941 156.888 161.69 156.792 161.488 156.6C161.296 156.408 161.2 156.173 161.2 155.896C161.2 155.608 161.296 155.368 161.488 155.176C161.69 154.984 161.941 154.888 162.24 154.888C162.538 154.888 162.784 154.984 162.976 155.176C163.178 155.357 163.28 155.587 163.28 155.864C163.28 156.152 163.184 156.397 162.992 156.6C162.8 156.792 162.549 156.888 162.24 156.888ZM166.164 167V157.768C166.164 156.936 166.404 156.275 166.884 155.784C167.375 155.283 168.068 155.032 168.964 155.032C169.295 155.032 169.61 155.075 169.908 155.16C170.218 155.235 170.479 155.357 170.692 155.528L170.228 156.696C170.068 156.568 169.887 156.472 169.684 156.408C169.482 156.333 169.268 156.296 169.044 156.296C168.596 156.296 168.255 156.424 168.02 156.68C167.786 156.925 167.668 157.293 167.668 157.784V158.92L167.7 159.624V167H166.164ZM164.724 159.784V158.52H170.132V159.784H164.724ZM171.588 167V158.52H173.124V167H171.588ZM172.356 156.888C172.058 156.888 171.807 156.792 171.604 156.6C171.412 156.408 171.316 156.173 171.316 155.896C171.316 155.608 171.412 155.368 171.604 155.176C171.807 154.984 172.058 154.888 172.356 154.888C172.655 154.888 172.9 154.984 173.092 155.176C173.295 155.357 173.396 155.587 173.396 155.864C173.396 156.152 173.3 156.397 173.108 156.6C172.916 156.792 172.666 156.888 172.356 156.888ZM179.746 167.096C178.882 167.096 178.108 166.909 177.426 166.536C176.754 166.163 176.226 165.651 175.842 165C175.458 164.349 175.266 163.603 175.266 162.76C175.266 161.917 175.458 161.171 175.842 160.52C176.226 159.869 176.754 159.363 177.426 159C178.108 158.627 178.882 158.44 179.746 158.44C180.514 158.44 181.196 158.595 181.794 158.904C182.402 159.203 182.871 159.651 183.202 160.248L182.034 161C181.756 160.584 181.415 160.28 181.01 160.088C180.615 159.885 180.188 159.784 179.73 159.784C179.175 159.784 178.679 159.907 178.242 160.152C177.804 160.397 177.458 160.744 177.202 161.192C176.946 161.629 176.818 162.152 176.818 162.76C176.818 163.368 176.946 163.896 177.202 164.344C177.458 164.792 177.804 165.139 178.242 165.384C178.679 165.629 179.175 165.752 179.73 165.752C180.188 165.752 180.615 165.656 181.01 165.464C181.415 165.261 181.756 164.952 182.034 164.536L183.202 165.272C182.871 165.859 182.402 166.312 181.794 166.632C181.196 166.941 180.514 167.096 179.746 167.096ZM190.454 167V165.208L190.374 164.872V161.816C190.374 161.165 190.182 160.664 189.798 160.312C189.425 159.949 188.86 159.768 188.102 159.768C187.601 159.768 187.11 159.853 186.63 160.024C186.15 160.184 185.745 160.403 185.414 160.68L184.774 159.528C185.212 159.176 185.734 158.909 186.342 158.728C186.961 158.536 187.606 158.44 188.278 158.44C189.441 158.44 190.337 158.723 190.966 159.288C191.596 159.853 191.91 160.717 191.91 161.88V167H190.454ZM187.67 167.096C187.041 167.096 186.486 166.989 186.006 166.776C185.537 166.563 185.174 166.269 184.918 165.896C184.662 165.512 184.534 165.08 184.534 164.6C184.534 164.141 184.641 163.725 184.854 163.352C185.078 162.979 185.436 162.68 185.926 162.456C186.428 162.232 187.1 162.12 187.942 162.12H190.63V163.224H188.006C187.238 163.224 186.721 163.352 186.454 163.608C186.188 163.864 186.054 164.173 186.054 164.536C186.054 164.952 186.22 165.288 186.55 165.544C186.881 165.789 187.34 165.912 187.926 165.912C188.502 165.912 189.004 165.784 189.43 165.528C189.868 165.272 190.182 164.899 190.374 164.408L190.678 165.464C190.476 165.965 190.118 166.365 189.606 166.664C189.094 166.952 188.449 167.096 187.67 167.096ZM197.665 167.096C196.812 167.096 196.15 166.867 195.681 166.408C195.212 165.949 194.977 165.293 194.977 164.44V156.664H196.513V164.376C196.513 164.835 196.625 165.187 196.849 165.432C197.084 165.677 197.414 165.8 197.841 165.8C198.321 165.8 198.721 165.667 199.041 165.4L199.521 166.504C199.286 166.707 199.004 166.856 198.673 166.952C198.353 167.048 198.017 167.096 197.665 167.096ZM193.537 159.784V158.52H198.945V159.784H193.537ZM201.378 167V158.52H202.914V167H201.378ZM202.146 156.888C201.847 156.888 201.597 156.792 201.394 156.6C201.202 156.408 201.106 156.173 201.106 155.896C201.106 155.608 201.202 155.368 201.394 155.176C201.597 154.984 201.847 154.888 202.146 154.888C202.445 154.888 202.69 154.984 202.882 155.176C203.085 155.357 203.186 155.587 203.186 155.864C203.186 156.152 203.09 156.397 202.898 156.6C202.706 156.792 202.455 156.888 202.146 156.888ZM209.479 167.096C208.625 167.096 207.868 166.909 207.207 166.536C206.545 166.163 206.023 165.651 205.639 165C205.255 164.339 205.063 163.592 205.063 162.76C205.063 161.917 205.255 161.171 205.639 160.52C206.023 159.869 206.545 159.363 207.207 159C207.868 158.627 208.625 158.44 209.479 158.44C210.321 158.44 211.073 158.627 211.735 159C212.407 159.363 212.929 159.869 213.303 160.52C213.687 161.16 213.879 161.907 213.879 162.76C213.879 163.603 213.687 164.349 213.303 165C212.929 165.651 212.407 166.163 211.735 166.536C211.073 166.909 210.321 167.096 209.479 167.096ZM209.479 165.752C210.023 165.752 210.508 165.629 210.935 165.384C211.372 165.139 211.713 164.792 211.959 164.344C212.204 163.885 212.327 163.357 212.327 162.76C212.327 162.152 212.204 161.629 211.959 161.192C211.713 160.744 211.372 160.397 210.935 160.152C210.508 159.907 210.023 159.784 209.479 159.784C208.935 159.784 208.449 159.907 208.023 160.152C207.596 160.397 207.255 160.744 206.999 161.192C206.743 161.629 206.615 162.152 206.615 162.76C206.615 163.357 206.743 163.885 206.999 164.344C207.255 164.792 207.596 165.139 208.023 165.384C208.449 165.629 208.935 165.752 209.479 165.752ZM220.531 158.44C221.224 158.44 221.832 158.573 222.355 158.84C222.888 159.107 223.304 159.512 223.603 160.056C223.902 160.6 224.051 161.288 224.051 162.12V167H222.515V162.296C222.515 161.475 222.312 160.856 221.907 160.44C221.512 160.024 220.952 159.816 220.227 159.816C219.683 159.816 219.208 159.923 218.803 160.136C218.398 160.349 218.083 160.664 217.859 161.08C217.646 161.496 217.539 162.013 217.539 162.632V167H216.003V158.52H217.475V160.808L217.235 160.2C217.512 159.645 217.939 159.213 218.515 158.904C219.091 158.595 219.763 158.44 220.531 158.44ZM229.326 167.096C228.622 167.096 227.95 167 227.31 166.808C226.68 166.616 226.184 166.381 225.822 166.104L226.462 164.888C226.824 165.133 227.272 165.341 227.806 165.512C228.339 165.683 228.883 165.768 229.438 165.768C230.152 165.768 230.664 165.667 230.974 165.464C231.294 165.261 231.454 164.979 231.454 164.616C231.454 164.349 231.358 164.141 231.166 163.992C230.974 163.843 230.718 163.731 230.398 163.656C230.088 163.581 229.742 163.517 229.358 163.464C228.974 163.4 228.59 163.325 228.206 163.24C227.822 163.144 227.47 163.016 227.15 162.856C226.83 162.685 226.574 162.456 226.382 162.168C226.19 161.869 226.094 161.475 226.094 160.984C226.094 160.472 226.238 160.024 226.526 159.64C226.814 159.256 227.219 158.963 227.742 158.76C228.275 158.547 228.904 158.44 229.63 158.44C230.184 158.44 230.744 158.509 231.31 158.648C231.886 158.776 232.355 158.963 232.718 159.208L232.062 160.424C231.678 160.168 231.278 159.992 230.862 159.896C230.446 159.8 230.03 159.752 229.614 159.752C228.942 159.752 228.44 159.864 228.11 160.088C227.779 160.301 227.614 160.579 227.614 160.92C227.614 161.208 227.71 161.432 227.902 161.592C228.104 161.741 228.36 161.859 228.67 161.944C228.99 162.029 229.342 162.104 229.726 162.168C230.11 162.221 230.494 162.296 230.878 162.392C231.262 162.477 231.608 162.6 231.918 162.76C232.238 162.92 232.494 163.144 232.686 163.432C232.888 163.72 232.99 164.104 232.99 164.584C232.99 165.096 232.84 165.539 232.542 165.912C232.243 166.285 231.822 166.579 231.278 166.792C230.734 166.995 230.083 167.096 229.326 167.096ZM234.301 169.368L235.101 166.136L235.309 167.064C235 167.064 234.738 166.968 234.525 166.776C234.322 166.584 234.221 166.323 234.221 165.992C234.221 165.672 234.322 165.411 234.525 165.208C234.738 165.005 234.994 164.904 235.293 164.904C235.602 164.904 235.853 165.011 236.045 165.224C236.237 165.427 236.333 165.683 236.333 165.992C236.333 166.099 236.322 166.205 236.301 166.312C236.29 166.408 236.264 166.525 236.221 166.664C236.189 166.792 236.136 166.952 236.061 167.144L235.309 169.368H234.301ZM245.743 167.096C244.89 167.096 244.228 166.867 243.759 166.408C243.29 165.949 243.055 165.293 243.055 164.44V156.664H244.591V164.376C244.591 164.835 244.703 165.187 244.927 165.432C245.162 165.677 245.492 165.8 245.919 165.8C246.399 165.8 246.799 165.667 247.119 165.4L247.599 166.504C247.364 166.707 247.082 166.856 246.751 166.952C246.431 167.048 246.095 167.096 245.743 167.096ZM241.615 159.784V158.52H247.023V159.784H241.615ZM253.984 158.44C254.677 158.44 255.285 158.573 255.808 158.84C256.341 159.107 256.757 159.512 257.056 160.056C257.355 160.6 257.504 161.288 257.504 162.12V167H255.968V162.296C255.968 161.475 255.765 160.856 255.36 160.44C254.965 160.024 254.405 159.816 253.68 159.816C253.136 159.816 252.661 159.923 252.256 160.136C251.851 160.349 251.536 160.664 251.312 161.08C251.099 161.496 250.992 162.013 250.992 162.632V167H249.456V155.128H250.992V160.808L250.688 160.2C250.965 159.645 251.392 159.213 251.968 158.904C252.544 158.595 253.216 158.44 253.984 158.44ZM264.123 167.096C263.216 167.096 262.416 166.909 261.723 166.536C261.04 166.163 260.507 165.651 260.123 165C259.749 164.349 259.563 163.603 259.563 162.76C259.563 161.917 259.744 161.171 260.107 160.52C260.48 159.869 260.987 159.363 261.627 159C262.277 158.627 263.008 158.44 263.819 158.44C264.64 158.44 265.365 158.621 265.995 158.984C266.624 159.347 267.115 159.859 267.467 160.52C267.829 161.171 268.011 161.933 268.011 162.808C268.011 162.872 268.005 162.947 267.995 163.032C267.995 163.117 267.989 163.197 267.979 163.272H260.763V162.168H267.179L266.555 162.552C266.565 162.008 266.453 161.523 266.219 161.096C265.984 160.669 265.659 160.339 265.243 160.104C264.837 159.859 264.363 159.736 263.819 159.736C263.285 159.736 262.811 159.859 262.395 160.104C261.979 160.339 261.653 160.675 261.419 161.112C261.184 161.539 261.067 162.029 261.067 162.584V162.84C261.067 163.405 261.195 163.912 261.451 164.36C261.717 164.797 262.085 165.139 262.555 165.384C263.024 165.629 263.563 165.752 264.171 165.752C264.672 165.752 265.125 165.667 265.531 165.496C265.947 165.325 266.309 165.069 266.619 164.728L267.467 165.72C267.083 166.168 266.603 166.509 266.027 166.744C265.461 166.979 264.827 167.096 264.123 167.096ZM270.355 170.2C269.95 170.2 269.555 170.131 269.171 169.992C268.787 169.864 268.457 169.672 268.179 169.416L268.835 168.264C269.049 168.467 269.283 168.621 269.539 168.728C269.795 168.835 270.067 168.888 270.355 168.888C270.729 168.888 271.038 168.792 271.283 168.6C271.529 168.408 271.758 168.067 271.971 167.576L272.499 166.408L272.659 166.216L275.987 158.52H277.491L273.379 167.848C273.134 168.445 272.857 168.915 272.547 169.256C272.249 169.597 271.918 169.837 271.555 169.976C271.193 170.125 270.793 170.2 270.355 170.2ZM272.371 167.272L268.499 158.52H270.099L273.395 166.072L272.371 167.272ZM278.582 159.496L279.382 156.248L279.59 157.176C279.281 157.176 279.02 157.08 278.806 156.888C278.604 156.696 278.502 156.44 278.502 156.12C278.502 155.789 278.604 155.528 278.806 155.336C279.02 155.133 279.276 155.032 279.574 155.032C279.884 155.032 280.134 155.139 280.326 155.352C280.518 155.555 280.614 155.811 280.614 156.12C280.614 156.216 280.609 156.317 280.598 156.424C280.588 156.52 280.561 156.632 280.518 156.76C280.486 156.888 280.433 157.053 280.358 157.256L279.59 159.496H278.582ZM282.815 167V155.128H284.351V167H282.815ZM287.284 167V155.128H288.82V167H287.284ZM100.185 191.096C99.4809 191.096 98.8089 191 98.1689 190.808C97.5395 190.616 97.0435 190.381 96.6809 190.104L97.3209 188.888C97.6835 189.133 98.1315 189.341 98.6649 189.512C99.1982 189.683 99.7422 189.768 100.297 189.768C101.012 189.768 101.524 189.667 101.833 189.464C102.153 189.261 102.313 188.979 102.313 188.616C102.313 188.349 102.217 188.141 102.025 187.992C101.833 187.843 101.577 187.731 101.257 187.656C100.948 187.581 100.601 187.517 100.217 187.464C99.8329 187.4 99.4489 187.325 99.0649 187.24C98.6809 187.144 98.3289 187.016 98.0089 186.856C97.6889 186.685 97.4329 186.456 97.2409 186.168C97.0489 185.869 96.9529 185.475 96.9529 184.984C96.9529 184.472 97.0969 184.024 97.3849 183.64C97.6729 183.256 98.0782 182.963 98.6009 182.76C99.1342 182.547 99.7635 182.44 100.489 182.44C101.044 182.44 101.604 182.509 102.169 182.648C102.745 182.776 103.214 182.963 103.577 183.208L102.921 184.424C102.537 184.168 102.137 183.992 101.721 183.896C101.305 183.8 100.889 183.752 100.473 183.752C99.8009 183.752 99.2995 183.864 98.9689 184.088C98.6382 184.301 98.4729 184.579 98.4729 184.92C98.4729 185.208 98.5689 185.432 98.7609 185.592C98.9635 185.741 99.2195 185.859 99.5289 185.944C99.8489 186.029 100.201 186.104 100.585 186.168C100.969 186.221 101.353 186.296 101.737 186.392C102.121 186.477 102.468 186.6 102.777 186.76C103.097 186.92 103.353 187.144 103.545 187.432C103.748 187.72 103.849 188.104 103.849 188.584C103.849 189.096 103.7 189.539 103.401 189.912C103.102 190.285 102.681 190.579 102.137 190.792C101.593 190.995 100.942 191.096 100.185 191.096ZM110.297 182.44C110.99 182.44 111.598 182.573 112.121 182.84C112.654 183.107 113.07 183.512 113.369 184.056C113.667 184.6 113.817 185.288 113.817 186.12V191H112.281V186.296C112.281 185.475 112.078 184.856 111.673 184.44C111.278 184.024 110.718 183.816 109.993 183.816C109.449 183.816 108.974 183.923 108.569 184.136C108.163 184.349 107.849 184.664 107.625 185.08C107.411 185.496 107.305 186.013 107.305 186.632V191H105.769V179.128H107.305V184.808L107.001 184.2C107.278 183.645 107.705 183.213 108.281 182.904C108.857 182.595 109.529 182.44 110.297 182.44ZM120.291 191.096C119.438 191.096 118.68 190.909 118.019 190.536C117.358 190.163 116.835 189.651 116.451 189C116.067 188.339 115.875 187.592 115.875 186.76C115.875 185.917 116.067 185.171 116.451 184.52C116.835 183.869 117.358 183.363 118.019 183C118.68 182.627 119.438 182.44 120.291 182.44C121.134 182.44 121.886 182.627 122.547 183C123.219 183.363 123.742 183.869 124.115 184.52C124.499 185.16 124.691 185.907 124.691 186.76C124.691 187.603 124.499 188.349 124.115 189C123.742 189.651 123.219 190.163 122.547 190.536C121.886 190.909 121.134 191.096 120.291 191.096ZM120.291 189.752C120.835 189.752 121.32 189.629 121.747 189.384C122.184 189.139 122.526 188.792 122.771 188.344C123.016 187.885 123.139 187.357 123.139 186.76C123.139 186.152 123.016 185.629 122.771 185.192C122.526 184.744 122.184 184.397 121.747 184.152C121.32 183.907 120.835 183.784 120.291 183.784C119.747 183.784 119.262 183.907 118.835 184.152C118.408 184.397 118.067 184.744 117.811 185.192C117.555 185.629 117.427 186.152 117.427 186.76C117.427 187.357 117.555 187.885 117.811 188.344C118.067 188.792 118.408 189.139 118.835 189.384C119.262 189.629 119.747 189.752 120.291 189.752ZM128.373 191L125.221 182.52H126.677L129.477 190.2H128.789L131.701 182.52H132.997L135.845 190.2H135.173L138.037 182.52H139.413L136.245 191H134.773L132.101 183.992H132.549L129.845 191H128.373ZM148.837 191.096C148.111 191.096 147.471 190.963 146.917 190.696C146.373 190.429 145.946 190.024 145.637 189.48C145.338 188.925 145.189 188.232 145.189 187.4V182.52H146.725V187.224C146.725 188.056 146.922 188.68 147.317 189.096C147.722 189.512 148.287 189.72 149.013 189.72C149.546 189.72 150.01 189.613 150.405 189.4C150.799 189.176 151.103 188.856 151.317 188.44C151.53 188.013 151.637 187.501 151.637 186.904V182.52H153.173V191H151.717V188.712L151.957 189.32C151.679 189.885 151.263 190.323 150.709 190.632C150.154 190.941 149.53 191.096 148.837 191.096ZM160.593 191.096C159.889 191.096 159.243 190.936 158.657 190.616C158.081 190.285 157.617 189.8 157.265 189.16C156.923 188.52 156.753 187.72 156.753 186.76C156.753 185.8 156.918 185 157.249 184.36C157.59 183.72 158.049 183.24 158.625 182.92C159.211 182.6 159.867 182.44 160.593 182.44C161.425 182.44 162.161 182.621 162.801 182.984C163.441 183.347 163.947 183.853 164.321 184.504C164.694 185.144 164.881 185.896 164.881 186.76C164.881 187.624 164.694 188.381 164.321 189.032C163.947 189.683 163.441 190.189 162.801 190.552C162.161 190.915 161.425 191.096 160.593 191.096ZM156.097 194.104V182.52H157.569V184.808L157.473 186.776L157.633 188.744V194.104H156.097ZM160.465 189.752C161.009 189.752 161.494 189.629 161.921 189.384C162.358 189.139 162.699 188.792 162.945 188.344C163.201 187.885 163.329 187.357 163.329 186.76C163.329 186.152 163.201 185.629 162.945 185.192C162.699 184.744 162.358 184.397 161.921 184.152C161.494 183.907 161.009 183.784 160.465 183.784C159.931 183.784 159.446 183.907 159.009 184.152C158.582 184.397 158.241 184.744 157.985 185.192C157.739 185.629 157.617 186.152 157.617 186.76C157.617 187.357 157.739 187.885 157.985 188.344C158.241 188.792 158.582 189.139 159.009 189.384C159.446 189.629 159.931 189.752 160.465 189.752ZM175.828 182.44C176.521 182.44 177.129 182.573 177.652 182.84C178.185 183.107 178.601 183.512 178.9 184.056C179.198 184.6 179.348 185.288 179.348 186.12V191H177.812V186.296C177.812 185.475 177.609 184.856 177.204 184.44C176.809 184.024 176.249 183.816 175.524 183.816C174.98 183.816 174.505 183.923 174.1 184.136C173.694 184.349 173.38 184.664 173.156 185.08C172.942 185.496 172.836 186.013 172.836 186.632V191H171.3V179.128H172.836V184.808L172.532 184.2C172.809 183.645 173.236 183.213 173.812 182.904C174.388 182.595 175.06 182.44 175.828 182.44ZM185.966 191.096C185.06 191.096 184.26 190.909 183.566 190.536C182.884 190.163 182.35 189.651 181.966 189C181.593 188.349 181.406 187.603 181.406 186.76C181.406 185.917 181.588 185.171 181.95 184.52C182.324 183.869 182.83 183.363 183.47 183C184.121 182.627 184.852 182.44 185.662 182.44C186.484 182.44 187.209 182.621 187.838 182.984C188.468 183.347 188.958 183.859 189.31 184.52C189.673 185.171 189.854 185.933 189.854 186.808C189.854 186.872 189.849 186.947 189.838 187.032C189.838 187.117 189.833 187.197 189.822 187.272H182.606V186.168H189.022L188.398 186.552C188.409 186.008 188.297 185.523 188.062 185.096C187.828 184.669 187.502 184.339 187.086 184.104C186.681 183.859 186.206 183.736 185.662 183.736C185.129 183.736 184.654 183.859 184.238 184.104C183.822 184.339 183.497 184.675 183.262 185.112C183.028 185.539 182.91 186.029 182.91 186.584V186.84C182.91 187.405 183.038 187.912 183.294 188.36C183.561 188.797 183.929 189.139 184.398 189.384C184.868 189.629 185.406 189.752 186.014 189.752C186.516 189.752 186.969 189.667 187.374 189.496C187.79 189.325 188.153 189.069 188.462 188.728L189.31 189.72C188.926 190.168 188.446 190.509 187.87 190.744C187.305 190.979 186.67 191.096 185.966 191.096ZM191.987 191V182.52H193.459V184.824L193.315 184.248C193.55 183.661 193.945 183.213 194.499 182.904C195.054 182.595 195.737 182.44 196.547 182.44V183.928C196.483 183.917 196.419 183.912 196.355 183.912C196.302 183.912 196.249 183.912 196.195 183.912C195.374 183.912 194.723 184.157 194.243 184.648C193.763 185.139 193.523 185.848 193.523 186.776V191H191.987ZM202.138 191.096C201.232 191.096 200.432 190.909 199.738 190.536C199.056 190.163 198.522 189.651 198.138 189C197.765 188.349 197.578 187.603 197.578 186.76C197.578 185.917 197.76 185.171 198.122 184.52C198.496 183.869 199.002 183.363 199.642 183C200.293 182.627 201.024 182.44 201.834 182.44C202.656 182.44 203.381 182.621 204.01 182.984C204.64 183.347 205.13 183.859 205.482 184.52C205.845 185.171 206.026 185.933 206.026 186.808C206.026 186.872 206.021 186.947 206.01 187.032C206.01 187.117 206.005 187.197 205.994 187.272H198.778V186.168H205.194L204.57 186.552C204.581 186.008 204.469 185.523 204.234 185.096C204 184.669 203.674 184.339 203.258 184.104C202.853 183.859 202.378 183.736 201.834 183.736C201.301 183.736 200.826 183.859 200.41 184.104C199.994 184.339 199.669 184.675 199.434 185.112C199.2 185.539 199.082 186.029 199.082 186.584V186.84C199.082 187.405 199.21 187.912 199.466 188.36C199.733 188.797 200.101 189.139 200.57 189.384C201.04 189.629 201.578 189.752 202.186 189.752C202.688 189.752 203.141 189.667 203.546 189.496C203.962 189.325 204.325 189.069 204.634 188.728L205.482 189.72C205.098 190.168 204.618 190.509 204.042 190.744C203.477 190.979 202.842 191.096 202.138 191.096Z" fill="#B2B2B2"/>
</svg>
