<svg width="18" height="18" viewBox="0 0 18 18" fill="none" xmlns="http://www.w3.org/2000/svg">
<path d="M14.2383 9.03521C13.0752 9.03521 12.1289 9.98147 12.1289 11.1446C12.1289 12.3077 13.0752 13.254 14.2383 13.254H17.2265C17.2385 13.254 17.2501 13.2528 17.2619 13.2522C17.2735 13.2527 17.285 13.2539 17.2969 13.2539C17.6852 13.2539 18 12.9391 18 12.5508V7.03127C18 6.0952 17.5399 5.26498 16.8344 4.7535L14.4423 0.82936C14.3448 0.669329 14.1874 0.554861 14.0051 0.511408C13.8228 0.467884 13.6307 0.498997 13.4714 0.597786L11.7074 1.69171L10.9119 0.345435C10.8162 0.183576 10.6597 0.066787 10.4774 0.021084C10.2951 -0.0246191 10.102 0.00466602 9.94133 0.10226L3.16789 4.21877H2.10937C1.72754 4.21877 1.41581 3.91284 1.40646 3.53322C1.41581 3.15361 1.72754 2.84768 2.10937 2.84768H3.41015C3.79849 2.84768 4.11328 2.53289 4.11328 2.14455C4.11328 1.75622 3.79849 1.44143 3.41015 1.44143H2.10937C1.11452 1.44143 0.278402 2.1338 0.0573046 3.06196C0.0205312 3.14724 0 3.24111 0 3.33986V3.51565V3.5508V15.1875C0 16.7383 1.26169 18 2.8125 18H15.1875C16.4 18 17.4724 17.2276 17.8559 16.078C17.9788 15.7096 17.7798 15.3114 17.4114 15.1885C17.0431 15.0656 16.6448 15.2646 16.5219 15.633C16.3302 16.2076 15.794 16.5938 15.1875 16.5938H2.8125C2.03709 16.5938 1.40625 15.9629 1.40625 15.1875V5.5044C1.62629 5.58244 1.86293 5.62502 2.10937 5.62502H15.1875C15.9629 5.62502 16.5937 6.25586 16.5937 7.03127V9.03521H14.2383ZM16.5937 11.8477H14.2383C13.8506 11.8477 13.5351 11.5323 13.5351 11.1445C13.5351 10.7568 13.8506 10.4414 14.2383 10.4414H16.5937V11.8477ZM5.87559 4.21881L10.0634 1.67374L10.8121 2.94081C10.8265 2.97544 10.843 3.00957 10.8634 3.04248C10.8787 3.06712 10.8956 3.09008 10.9133 3.11216L11.5672 4.21881H5.87559ZM13.2006 4.21877L12.4229 2.90266L13.6104 2.16632L14.8615 4.21877H13.2006Z" fill="#686868"/>
</svg>
