<svg width="18" height="18" viewBox="0 0 18 18" fill="none" xmlns="http://www.w3.org/2000/svg">
<path d="M8.99941 18C6.61466 17.993 4.32959 17.0426 2.64336 15.3562C0.957139 13.6699 0.00681981 11.3847 0 9C0.00681981 6.61525 0.957139 4.33011 2.64336 2.64378C4.32959 0.957441 6.61466 0.00697548 8.99941 0C11.3842 0.00697474 13.6694 0.957422 15.3557 2.64374C17.042 4.33006 17.9924 6.6152 17.9994 9C17.9924 11.3848 17.042 13.6699 15.3557 15.3563C13.6694 17.0426 11.3842 17.993 8.99941 18ZM8.99941 1.80011C7.09165 1.80585 5.26366 2.56625 3.91466 3.91525C2.56566 5.26425 1.80526 7.09224 1.79953 9C1.80511 10.9078 2.56546 12.7359 3.91449 14.0849C5.26352 15.434 7.0916 16.1943 8.99941 16.1999C10.9073 16.1945 12.7355 15.4342 14.0847 14.0851C15.4339 12.7361 16.1943 10.9079 16.1999 9C16.194 7.09224 15.4334 5.26431 14.0843 3.91542C12.7352 2.56653 10.9072 1.80628 8.99941 1.80071V1.80011Z" fill="#686868"/>
<path d="M8.99937 14.401C8.2922 14.4033 7.59205 14.2608 6.94205 13.9822C6.29206 13.7036 5.70599 13.2949 5.21994 12.7813C5.13453 12.7 5.06652 12.6023 5.02005 12.494C4.97358 12.3857 4.94962 12.269 4.94962 12.1512C4.94962 12.0333 4.97358 11.9167 5.02005 11.8083C5.06652 11.7 5.13453 11.6023 5.21994 11.5211C5.30117 11.4356 5.39891 11.3676 5.50722 11.3212C5.61554 11.2747 5.73217 11.2507 5.85004 11.2507C5.96791 11.2507 6.08454 11.2747 6.19286 11.3212C6.30118 11.3676 6.39892 11.4356 6.48014 11.5211C6.81398 11.8631 7.21287 12.1349 7.65333 12.3205C8.09379 12.5061 8.56693 12.6017 9.0449 12.6017C9.52287 12.6017 9.996 12.5061 10.4365 12.3205C10.8769 12.1349 11.2758 11.8631 11.6097 11.5211C11.6909 11.4357 11.7887 11.3678 11.897 11.3214C12.0053 11.2749 12.1219 11.251 12.2398 11.251C12.3576 11.251 12.4742 11.2749 12.5825 11.3214C12.6908 11.3678 12.7886 11.4357 12.8699 11.5211C12.9553 11.6023 13.0233 11.7 13.0697 11.8083C13.1162 11.9167 13.1402 12.0333 13.1402 12.1512C13.1402 12.269 13.1162 12.3857 13.0697 12.494C13.0233 12.6023 12.9553 12.7 12.8699 12.7813C11.8424 13.8084 10.4521 14.3902 8.99937 14.401Z" fill="#686868"/>
<path d="M5.84991 8.10106C6.59554 8.10106 7.19999 7.4966 7.19999 6.75097C7.19999 6.00533 6.59554 5.40088 5.84991 5.40088C5.10427 5.40088 4.49982 6.00533 4.49982 6.75097C4.49982 7.4966 5.10427 8.10106 5.84991 8.10106Z" fill="#686868"/>
<path d="M12.1498 8.10106C12.8954 8.10106 13.4999 7.4966 13.4999 6.75097C13.4999 6.00533 12.8954 5.40088 12.1498 5.40088C11.4041 5.40088 10.7997 6.00533 10.7997 6.75097C10.7997 7.4966 11.4041 8.10106 12.1498 8.10106Z" fill="#686868"/>
</svg>
