<svg width="18" height="16" viewBox="0 0 18 16" fill="none" xmlns="http://www.w3.org/2000/svg">
<path d="M15.8896 0.6875H2.1091C1.54994 0.688187 1.01388 0.910616 0.6185 1.306C0.223115 1.70138 0.000686505 2.23744 0 2.7966L0 4.53668L7.74115 10.2945C8.10424 10.5671 8.54599 10.7145 9 10.7145C9.45401 10.7145 9.89576 10.5671 10.2588 10.2945L18 4.53668V2.7966C17.9993 2.23722 17.7767 1.70096 17.381 1.30554C16.9854 0.910121 16.449 0.687843 15.8896 0.6875ZM16.5926 3.8304L9.41961 9.16671C9.29862 9.25764 9.15135 9.3068 9 9.3068C8.84864 9.3068 8.70138 9.25764 8.58038 9.16671L1.40607 3.8304V2.7966C1.40624 2.6102 1.48036 2.43148 1.61217 2.29967C1.74398 2.16786 1.9227 2.09374 2.1091 2.09357H15.8896C16.076 2.09374 16.2547 2.16786 16.3865 2.29967C16.5183 2.43148 16.5925 2.6102 16.5926 2.7966V3.8304ZM16.5926 7.33259L17.9987 6.28648V13.2046C17.9977 13.7635 17.7751 14.2993 17.3797 14.6944C16.9844 15.0895 16.4485 15.3117 15.8896 15.3124H2.1091C1.55017 15.3117 1.0143 15.0895 0.618957 14.6944C0.22361 14.2993 0.00102956 13.7635 0 13.2046L0 6.28972L1.40607 7.33519V13.2046C1.40624 13.391 1.48036 13.5697 1.61217 13.7015C1.74398 13.8333 1.9227 13.9075 2.1091 13.9076H15.8896C15.982 13.9077 16.0735 13.8896 16.1589 13.8543C16.2443 13.819 16.322 13.7673 16.3874 13.702C16.4528 13.6367 16.5047 13.5592 16.5401 13.4739C16.5756 13.3885 16.5938 13.297 16.5939 13.2046L16.5926 7.33259Z" fill="#686868"/>
</svg>
