<svg width="18" height="18" viewBox="0 0 18 18" fill="none" xmlns="http://www.w3.org/2000/svg">
<path d="M8.8199 9.55924C8.87916 9.55924 8.9389 9.56316 8.99914 9.56316C9.05938 9.56316 9.11031 9.56316 9.16565 9.55973C10.4239 9.58673 11.6565 9.92007 12.7569 10.5309C12.8375 10.5759 12.9263 10.6046 13.0181 10.6153C13.1098 10.626 13.2028 10.6185 13.2917 10.5933C13.3806 10.5681 13.4636 10.5256 13.5361 10.4683C13.6085 10.411 13.669 10.34 13.714 10.2593C13.759 10.1786 13.7877 10.0899 13.7985 9.99811C13.8092 9.90634 13.8017 9.81336 13.7765 9.72448C13.7513 9.63559 13.7088 9.55255 13.6515 9.48008C13.5942 9.40762 13.5232 9.34715 13.4425 9.30213C12.9391 9.02221 12.4103 8.79083 11.8631 8.61112C12.6677 8.0102 13.2626 7.17118 13.5635 6.2131C13.8643 5.25501 13.8559 4.22651 13.5393 3.27351C13.2227 2.3205 12.614 1.49139 11.7996 0.90381C10.9853 0.316224 10.0065 0 9.00233 0C7.99811 0 7.01939 0.316224 6.20502 0.90381C5.39065 1.49139 4.78199 2.3205 4.46538 3.27351C4.14878 4.22651 4.14031 5.25501 4.44118 6.2131C4.74205 7.17118 5.33698 8.0102 6.14156 8.61112C4.617 9.11182 3.25108 10.005 2.18107 11.2008C1.11106 12.3967 0.374662 13.8531 0.0458725 15.4238C-0.0196097 15.7346 -0.0149328 16.0561 0.0595625 16.3649C0.134058 16.6737 0.276495 16.962 0.476499 17.2088C0.676503 17.4555 0.929036 17.6546 1.2157 17.7914C1.50237 17.9283 1.81595 17.9994 2.1336 17.9998H7.62838C7.72226 18.0022 7.81569 17.9859 7.90315 17.9517C7.99061 17.9175 8.07033 17.8661 8.13761 17.8005C8.20489 17.735 8.25836 17.6567 8.29487 17.5702C8.33138 17.4836 8.35019 17.3907 8.35019 17.2967C8.35019 17.2028 8.33138 17.1099 8.29487 17.0233C8.25836 16.9368 8.20489 16.8585 8.13761 16.793C8.07033 16.7274 7.99061 16.676 7.90315 16.6418C7.81569 16.6076 7.72226 16.5913 7.62838 16.5937H2.1336C2.02578 16.5945 1.9192 16.5708 1.82184 16.5245C1.72447 16.4782 1.63885 16.4104 1.57139 16.3263C1.50249 16.2411 1.45354 16.1416 1.42812 16.0349C1.4027 15.9283 1.40145 15.8174 1.42447 15.7103C1.78705 14.0033 2.71386 12.4682 4.0555 11.3523C5.39714 10.2364 7.07545 9.60477 8.8199 9.55924ZM5.6244 4.7824C5.62435 4.12206 5.81803 3.47622 6.18145 2.92488C6.54486 2.37354 7.06204 1.94093 7.66891 1.68064C8.27579 1.42035 8.94569 1.34383 9.59563 1.46054C10.2456 1.57726 10.847 1.88209 11.3254 2.33726C11.8038 2.79244 12.1381 3.37797 12.287 4.0213C12.4359 4.66464 12.3927 5.33752 12.1629 5.95658C11.9331 6.57564 11.5268 7.11368 10.9942 7.50405C10.4616 7.89442 9.82615 8.11996 9.16663 8.15273C9.1108 8.15273 9.05497 8.15273 8.99914 8.15273C8.94429 8.15273 8.88944 8.15273 8.83459 8.15273C7.96951 8.10942 7.15409 7.73558 6.5567 7.10839C5.95932 6.4812 5.62558 5.64856 5.6244 4.7824ZM17.998 13.0721C17.9991 13.303 17.9543 13.5319 17.866 13.7453C17.7777 13.9587 17.6478 14.1524 17.4837 14.315L16.1762 15.6153C16.044 15.7471 15.8649 15.821 15.6782 15.8208C15.4915 15.8206 15.3126 15.7462 15.1808 15.614C15.0489 15.4819 14.975 15.3028 14.9752 15.1161C14.9755 14.9294 15.0498 14.7505 15.182 14.6187L16.0586 13.7469H12.0747C11.6972 13.7447 11.3343 13.8924 11.0658 14.1577C10.7973 14.423 10.6452 14.7841 10.6429 15.1615C10.6407 15.539 10.7884 15.9019 11.0537 16.1704C11.319 16.4389 11.6801 16.591 12.0575 16.5932C12.2408 16.5981 12.4149 16.6743 12.5428 16.8056C12.6706 16.9369 12.7422 17.113 12.7422 17.2963C12.7422 17.4796 12.6706 17.6556 12.5428 17.7869C12.4149 17.9182 12.2408 17.9944 12.0575 17.9993C11.6863 18.0004 11.3187 17.9274 10.9761 17.7844C10.6336 17.6415 10.323 17.4314 10.0628 17.1667C9.67157 16.7689 9.40637 16.2645 9.30045 15.7167C9.19453 15.1688 9.2526 14.6019 9.46738 14.0869C9.68215 13.5719 10.0441 13.1318 10.5079 12.8215C10.9717 12.5113 11.5167 12.3448 12.0747 12.3429H15.9925L15.182 11.5392C15.1134 11.475 15.0583 11.3977 15.0201 11.3118C14.9818 11.2259 14.9612 11.1333 14.9594 11.0393C14.9576 10.9453 14.9746 10.8519 15.0095 10.7647C15.0444 10.6774 15.0965 10.598 15.1626 10.5312C15.2287 10.4643 15.3075 10.4114 15.3944 10.3756C15.4813 10.3398 15.5745 10.3217 15.6685 10.3225C15.7625 10.3233 15.8553 10.3429 15.9416 10.3802C16.0279 10.4175 16.1058 10.4717 16.1708 10.5397L17.4764 11.8306C17.6415 11.9924 17.7727 12.1856 17.8623 12.3988C17.9518 12.612 17.998 12.8409 17.998 13.0721Z" fill="#686868"/>
</svg>
