<svg width="18" height="18" viewBox="0 0 18 18" fill="none" xmlns="http://www.w3.org/2000/svg">
<path d="M1.43506 11.6103C1.57477 11.7307 1.6811 11.8851 1.74376 12.0586C1.80643 12.2321 1.82333 12.4188 1.79283 12.6007V13.141C1.76087 13.5657 1.81628 13.9925 1.95565 14.3951C2.09502 14.7976 2.31539 15.1673 2.60317 15.4814C2.90512 15.7867 3.2732 16.0186 3.679 16.1591C4.0848 16.2996 4.51746 16.345 4.94358 16.2917H5.48381C5.66443 16.2821 5.84514 16.3088 6.01526 16.3703C6.18537 16.4317 6.34144 16.5267 6.47423 16.6495L6.832 17.0072C7.08828 17.3314 7.41775 17.5901 7.79337 17.7623C8.169 17.9344 8.58009 18.0151 8.99292 17.9977C9.42699 18.0095 9.85762 17.9176 10.2491 17.7297C10.6405 17.5418 10.9816 17.2633 11.2439 16.9172L11.6017 16.5594C11.7221 16.4197 11.8765 16.3134 12.05 16.2507C12.2235 16.1881 12.4102 16.1712 12.5921 16.2017H13.1323C13.5571 16.2336 13.9839 16.1782 14.3864 16.0388C14.7889 15.8995 15.1586 15.6791 15.4727 15.3913C15.7841 15.0937 16.02 14.7262 16.1609 14.3191C16.3019 13.9121 16.3437 13.4774 16.2831 13.0509V12.5107C16.2735 12.3301 16.3002 12.1494 16.3616 11.9792C16.4231 11.8091 16.518 11.6531 16.6408 11.5203L16.9986 11.1625C17.3227 10.9062 17.5815 10.5768 17.7536 10.2011C17.9258 9.8255 18.0065 9.41441 17.989 9.00158C18.0008 8.56751 17.9089 8.13689 17.721 7.74542C17.5331 7.35396 17.2546 7.01293 16.9086 6.75062L16.5508 6.39285C16.4111 6.27242 16.3048 6.11801 16.2421 5.94453C16.1794 5.77105 16.1625 5.58434 16.193 5.40243V4.8622C16.2299 4.42938 16.168 3.99384 16.012 3.58843C15.8561 3.18301 15.6101 2.8183 15.2926 2.52179C14.9907 2.21644 14.6226 1.98456 14.2168 1.84405C13.811 1.70355 13.3783 1.65818 12.9522 1.71145H12.412C12.2314 1.72101 12.0507 1.69428 11.8806 1.63283C11.7105 1.57138 11.5544 1.47646 11.4216 1.35368L11.0638 0.995912C10.8334 0.666205 10.5216 0.401724 10.1587 0.228174C9.79583 0.0546236 9.39422 -0.0220931 8.99292 0.00548748C8.55885 -0.00629568 8.12824 0.0855763 7.73677 0.27348C7.3453 0.461384 7.00428 0.739906 6.74197 1.08595L6.38419 1.44372C6.28786 1.58737 6.15025 1.69844 5.98952 1.76231C5.82878 1.82618 5.65247 1.83984 5.48381 1.80149H4.94358C4.51986 1.76935 4.09406 1.82418 3.6923 1.96261C3.29055 2.10104 2.92134 2.32014 2.60735 2.60646C2.30802 2.91265 2.08014 3.28127 1.94004 3.6859C1.79994 4.09053 1.75109 4.52114 1.79701 4.94687V5.4871C1.8065 5.66771 1.77974 5.84839 1.7183 6.01849C1.65685 6.18859 1.56196 6.34467 1.43924 6.47752L1.08147 6.74763C0.735429 7.00994 0.456907 7.35097 0.269003 7.74244C0.0810993 8.13391 -0.0107772 8.56453 0.00100596 8.9986C-0.0107772 9.43266 0.0810993 9.86329 0.269003 10.2548C0.456907 10.6462 0.735429 10.9872 1.08147 11.2496L1.43506 11.6103ZM2.24541 8.09941L2.60317 7.74163C2.96387 7.45622 3.24463 7.08237 3.41817 6.6564C3.59172 6.23043 3.65215 5.76682 3.5936 5.3106V4.77037C3.5846 4.60335 3.61191 4.43636 3.67368 4.28092C3.73544 4.12547 3.83018 3.98528 3.95137 3.86999C4.05393 3.76196 4.18149 3.68081 4.3228 3.63371C4.46412 3.5866 4.61485 3.57498 4.76172 3.59987H5.30194C5.77022 3.64198 6.24188 3.57439 6.67949 3.40248C7.1171 3.23056 7.50863 2.95904 7.82302 2.60945L8.09313 2.25168C8.1967 2.12495 8.32715 2.02283 8.47503 1.9527C8.62292 1.88258 8.78454 1.8462 8.9482 1.8462C9.11187 1.8462 9.27349 1.88258 9.42137 1.9527C9.56925 2.02283 9.6997 2.12495 9.80327 2.25168L10.161 2.60945C10.4754 2.95904 10.867 3.23056 11.3046 3.40248C11.7422 3.57439 12.2138 3.64198 12.6821 3.59987H13.2223C13.3894 3.59086 13.5564 3.61818 13.7118 3.67995C13.8672 3.74171 14.0074 3.83646 14.1227 3.95764C14.2439 4.07291 14.3387 4.2131 14.4005 4.36855C14.4622 4.524 14.4895 4.691 14.4805 4.85802V5.39826C14.4302 5.86718 14.494 6.34131 14.6665 6.78027C14.8389 7.21923 15.1149 7.61001 15.4709 7.91933L15.8287 8.2771C15.9696 8.38093 16.0839 8.51665 16.1622 8.67315C16.2406 8.82965 16.2808 9.00247 16.2795 9.17748C16.2707 9.35059 16.2262 9.51999 16.1486 9.67498C16.071 9.82997 15.9621 9.96716 15.8287 10.0779L15.4709 10.4356C15.0753 10.6477 14.7574 10.9801 14.5632 11.3847C14.369 11.7894 14.3085 12.2453 14.3905 12.6866V13.2268C14.3995 13.3938 14.3721 13.5608 14.3104 13.7163C14.2486 13.8717 14.1539 14.0119 14.0327 14.1272C13.9174 14.2484 13.7772 14.3432 13.6218 14.405C13.4663 14.4667 13.2993 14.494 13.1323 14.485H12.5921C12.1238 14.4429 11.6522 14.5105 11.2146 14.6824C10.777 14.8544 10.3854 15.1258 10.071 15.4754L9.89212 15.7455C9.78855 15.8722 9.6581 15.9744 9.51022 16.0445C9.36234 16.1146 9.20072 16.151 9.03705 16.151C8.87338 16.151 8.71176 16.1146 8.56388 16.0445C8.416 15.9744 8.28555 15.8722 8.18198 15.7455L7.82422 15.3877C7.23437 14.7733 6.42535 14.4173 5.57385 14.3973H4.76589C4.59887 14.4063 4.43188 14.379 4.27644 14.3172C4.121 14.2555 3.98079 14.1607 3.8655 14.0396C3.74429 13.9243 3.64953 13.7841 3.58776 13.6286C3.52599 13.4732 3.49869 13.3062 3.50774 13.1392V12.5989C3.54976 12.1307 3.48212 11.6591 3.31021 11.2215C3.1383 10.7839 2.86683 10.3923 2.51731 10.0779L2.24719 9.89898C2.11394 9.78822 2.00513 9.651 1.92764 9.49602C1.85014 9.34104 1.80567 9.17166 1.79701 8.9986C1.80513 8.82541 1.84912 8.6558 1.92621 8.5005C2.00329 8.3452 2.11178 8.20761 2.24481 8.09642L2.24541 8.09941Z" fill="#686868"/>
<path d="M8.99775 12.5977C9.95211 12.5951 10.8666 12.2147 11.5415 11.5399C12.2163 10.8651 12.5966 9.95056 12.5993 8.99619C12.5966 8.04183 12.2163 7.12732 11.5415 6.45248C10.8666 5.77763 9.95211 5.39733 8.99775 5.39465C8.04339 5.39733 7.12887 5.77763 6.45403 6.45248C5.77919 7.12732 5.39888 8.04183 5.39621 8.99619C5.39888 9.95056 5.77919 10.8651 6.45403 11.5399C7.12887 12.2147 8.04339 12.5951 8.99775 12.5977ZM8.99775 7.19602C9.47475 7.19744 9.9318 7.38755 10.2691 7.72484C10.6064 8.06213 10.7965 8.51919 10.7979 8.99619C10.7965 9.47319 10.6064 9.93025 10.2691 10.2675C9.9318 10.6048 9.47475 10.7949 8.99775 10.7964C8.52075 10.7949 8.06369 10.6048 7.7264 10.2675C7.3891 9.93025 7.19899 9.47319 7.19757 8.99619C7.19899 8.51919 7.3891 8.06213 7.7264 7.72484C8.06369 7.38755 8.52075 7.19744 8.99775 7.19602Z" fill="#686868"/>
</svg>
