<svg width="19" height="20" viewBox="0 0 19 20" fill="none" xmlns="http://www.w3.org/2000/svg">
<path d="M9.45086 9.96448V9.96457L9.45617 9.96441C9.53961 9.96178 9.62158 9.94174 9.69683 9.90558L9.69691 9.90576L9.70367 9.90207L17.7871 5.49292C17.7871 5.49291 17.7871 5.4929 17.7871 5.4929C17.8715 5.44727 17.9415 5.37905 17.9892 5.29588C18.0369 5.2127 18.0606 5.11786 18.0574 5.02201L18.0574 5.02201L18.0573 5.01887C18.0522 4.92362 18.0211 4.83157 17.9675 4.75268C17.9138 4.67379 17.8396 4.61106 17.7529 4.57126L17.7524 4.57103L9.66854 0.896535C9.66854 0.896532 9.66853 0.896529 9.66852 0.896525C9.60109 0.865865 9.52787 0.85 9.45379 0.85C9.37971 0.85 9.30649 0.865864 9.23906 0.896525C9.23905 0.896529 9.23905 0.896532 9.23904 0.896536L1.15655 4.57039C1.06799 4.60866 0.992138 4.67134 0.937881 4.75114C0.883281 4.83145 0.852837 4.92572 0.850152 5.02279L0.850136 5.02352C0.847971 5.11858 0.871768 5.21244 0.918988 5.29499C0.966205 5.37754 1.03505 5.44564 1.11809 5.49197L1.11934 5.49266L9.20325 9.90207L9.20324 9.90208L9.20501 9.90301C9.2808 9.94305 9.36515 9.96414 9.45086 9.96448ZM16.38 5.07918L9.45147 8.85727L2.52614 5.07918L9.45147 1.92875L16.38 5.07918Z" fill="#686868" stroke="#686868" stroke-width="0.3"/>
<path d="M13.4906 7.7599V7.75987C13.4097 7.75871 13.3302 7.73945 13.2577 7.70351L13.2548 7.70205L13.2548 7.70202L5.53846 3.66079C5.53845 3.66078 5.53843 3.66077 5.53842 3.66076L13.4906 7.7599ZM13.4906 7.7599L13.4936 7.75989M13.4906 7.7599L13.4936 7.75989M13.4936 7.75989C13.5872 7.75937 13.6791 7.73394 13.7596 7.68619C13.8402 7.63844 13.9066 7.5701 13.952 7.48822L13.952 7.48823L13.9535 7.48531C13.9852 7.42515 14.0047 7.35934 14.0109 7.29164C14.0171 7.22395 14.0099 7.15569 13.9897 7.09077L13.8465 7.1353L13.4936 7.75989Z" fill="#686868" stroke="#686868" stroke-width="0.3"/>
<path d="M9.44837 19.15L9.44837 19.1499C9.35626 19.1492 9.26591 19.1245 9.1863 19.0781L9.18408 19.0768L9.18409 19.0768C9.10775 19.0306 9.04451 18.9656 9.0004 18.888C8.95629 18.8105 8.93276 18.7229 8.93207 18.6337L8.93206 18.6325L8.93206 9.44701V9.44689H9.08206C9.08196 9.38089 9.09957 9.31606 9.13306 9.25918C9.16656 9.20231 9.2147 9.15546 9.27247 9.12353L9.44837 19.15ZM9.44837 19.15L9.45309 19.1499C9.53605 19.1479 9.61758 19.1278 9.69192 19.0909L9.69197 19.091L9.69705 19.0882L17.781 14.6788L17.7817 14.6784C17.8631 14.6334 17.9309 14.5675 17.9781 14.4874C18.0253 14.4073 18.0502 14.316 18.0502 14.2231L9.44837 19.15ZM17.016 5.90748V13.9169L9.96696 17.7618V9.7524L17.016 5.90748Z" fill="#686868" stroke="#686868" stroke-width="0.3"/>
<path d="M9.96814 9.44725C9.96828 9.3544 9.9435 9.26321 9.89639 9.1832L9.76714 9.25931L9.89639 9.1832C9.84928 9.10318 9.78155 9.03728 9.70028 8.99237L9.69956 8.99197L1.61565 4.58257L1.61564 4.58256C1.53674 4.53953 1.44795 4.51784 1.35809 4.51966C1.26822 4.52148 1.18039 4.54674 1.10329 4.59292L1.10329 4.59292L1.10309 4.59304C1.02647 4.6391 0.962975 4.70406 0.918662 4.78169C0.874345 4.85933 0.850707 4.94704 0.850005 5.03643L0.85 5.03643V5.03761V14.2225C0.85 14.2225 0.85 14.2225 0.85 14.2225C0.849984 14.3155 0.874868 14.4067 0.92209 14.4868C0.969317 14.5669 1.03715 14.6329 1.11851 14.6778L1.11924 14.6782L9.20315 19.0877L9.20314 19.0877L9.20491 19.0886C9.2807 19.1286 9.36506 19.1497 9.45077 19.1501L9.45169 19.1501C9.54429 19.1499 9.63515 19.1249 9.71484 19.0777L9.71484 19.0777L9.71611 19.0769C9.79245 19.0307 9.85568 18.9657 9.8998 18.8882C9.94391 18.8106 9.96744 18.723 9.96814 18.6338V18.6326V9.44725ZM9.96814 9.44725L9.81814 9.44701H9.96814V9.44725ZM1 5.03761C1.0005 4.9739 1.01735 4.91138 1.04893 4.85605C1.08052 4.80072 1.12577 4.75443 1.18038 4.7216L1 5.03761ZM1.88557 5.90427L8.93458 9.74918V17.7586L1.88557 13.9137V5.90427Z" fill="#686868" stroke="#686868" stroke-width="0.3"/>
<path d="M6.64733 14.6849L6.64711 14.6848L3.70751 13.215L3.70656 13.2145C3.62162 13.1713 3.55028 13.1054 3.50045 13.0241C3.4506 12.9429 3.42421 12.8495 3.42416 12.7542L3.42416 12.7541L3.42416 9.44729V9.44704L6.64733 14.6849ZM6.64733 14.6849C6.71873 14.7204 6.7972 14.7395 6.87694 14.7407M6.64733 14.6849L7.15088 14.6635C7.06902 14.7153 6.97383 14.7421 6.87694 14.7407M6.87694 14.7407L6.87921 14.5907L6.87702 14.7407C6.87699 14.7407 6.87697 14.7407 6.87694 14.7407ZM7.10998 10.456L4.17102 8.98651L7.39332 14.2239V14.2236V10.9168V10.9168C7.39327 10.8214 7.36686 10.728 7.31703 10.6468C7.26719 10.5656 7.19587 10.4997 7.11093 10.4565L7.11093 10.4565L7.10998 10.456ZM3.66807 9.00761C3.66802 9.00764 3.66797 9.00767 3.66792 9.0077L3.7472 9.13504L3.66822 9.00752C3.66817 9.00755 3.66812 9.00758 3.66807 9.00761ZM4.45706 10.2844L6.36176 11.2373V13.3859L4.45706 12.4329V10.2844Z" fill="#686868" stroke="#686868" stroke-width="0.3"/>
<path d="M14.4456 13.1218L14.4456 13.1216L14.4456 9.08077V9.08026H14.5956L14.4456 13.1218ZM14.4456 13.1218C14.4459 13.2589 14.5004 13.3903 14.5974 13.4872C14.6943 13.5842 14.8257 13.6388 14.9628 13.639L14.9636 13.639L14.4456 13.1218ZM15.4785 13.1214V10.0491L15.3285 13.1216H15.4785V13.1214Z" fill="#686868" stroke="#686868" stroke-width="0.3"/>
<path d="M13.8586 11.0668L13.8591 11.0668C13.9398 11.0674 14.0195 11.0491 14.0918 11.0132C14.164 10.9773 14.2267 10.925 14.275 10.8604C14.275 10.8603 14.2751 10.8603 14.2751 10.8602L15.3772 9.3907L15.3774 9.39048C15.4595 9.28066 15.4946 9.1428 15.4753 9.00709C15.4559 8.87138 15.3835 8.74888 15.274 8.66643L15.274 8.66642L15.2731 8.66581C15.1634 8.58434 15.0259 8.54949 14.8905 8.56885C14.7552 8.58821 14.633 8.66021 14.5504 8.76919L14.55 8.76972L13.447 10.2395L13.4468 10.2397C13.3648 10.3495 13.3296 10.4873 13.349 10.6229C13.3684 10.7585 13.4408 10.8809 13.5503 10.9632L13.5503 10.9632L13.5516 10.9642C13.6407 11.0297 13.748 11.0656 13.8586 11.0668Z" fill="#686868" stroke="#686868" stroke-width="0.3"/>
<path d="M11.5083 14.5916L11.5083 14.5914L11.5083 10.5505V10.5501H11.6583L11.5083 14.5916ZM11.5083 14.5916C11.5086 14.7287 11.5631 14.8602 11.6599 14.9572C11.7568 15.0542 11.8881 15.109 12.0252 15.1095L12.0263 15.1095M11.5083 14.5916L12.0263 15.1095M12.0263 15.1095C12.1632 15.109 12.2943 15.0542 12.3909 14.9571L12.2845 14.8514L12.0263 15.1095ZM12.5412 14.5919V11.5199V14.592V14.5919Z" fill="#686868" stroke="#686868" stroke-width="0.3"/>
<path d="M10.9201 12.538L10.9205 12.538C11.0011 12.5384 11.0807 12.5198 11.1527 12.4837C11.2246 12.4477 11.287 12.3952 11.3349 12.3306L12.4369 10.8612L12.4371 10.861C12.5192 10.7512 12.5543 10.6133 12.535 10.4776C12.5156 10.3419 12.4432 10.2194 12.3337 10.1369L12.3333 10.1366C12.2235 10.0546 12.0858 10.0194 11.9501 10.0388C11.8145 10.0582 11.6921 10.1306 11.6098 10.2401L11.6097 10.2402L10.5067 11.71L10.5067 11.71L10.5063 11.7105C10.4246 11.8203 10.3896 11.9581 10.4089 12.0936C10.4283 12.2292 10.5005 12.3516 10.6097 12.4342L10.6097 12.4342L10.6114 12.4354C10.7009 12.5012 10.809 12.5371 10.9201 12.538Z" fill="#686868" stroke="#686868" stroke-width="0.3"/>
</svg>
