<svg width="1065" height="90" viewBox="0 0 1065 90" fill="none" xmlns="http://www.w3.org/2000/svg">
<rect x="0.5" y="0.5" width="1064" height="89" rx="14.5" fill="white" stroke="#E9E9E9"/>
<path d="M49.362 64.168C48.3913 64.168 47.5513 63.958 46.842 63.538C46.142 63.1087 45.6007 62.516 45.218 61.76C44.8353 60.9947 44.644 60.1127 44.644 59.114C44.644 58.106 44.8353 57.224 45.218 56.468C45.6007 55.7027 46.142 55.1053 46.842 54.676C47.5513 54.2467 48.3913 54.032 49.362 54.032C50.51 54.032 51.448 54.312 52.176 54.872C52.904 55.432 53.366 56.216 53.562 57.224H51.91C51.7793 56.6547 51.4993 56.202 51.07 55.866C50.6407 55.53 50.0667 55.362 49.348 55.362C48.368 55.362 47.5933 55.698 47.024 56.37C46.4547 57.0327 46.17 57.9473 46.17 59.114C46.17 60.2713 46.4547 61.1813 47.024 61.844C47.5933 62.5067 48.368 62.838 49.348 62.838C50.0667 62.838 50.6407 62.6793 51.07 62.362C51.4993 62.0447 51.7793 61.6107 51.91 61.06H53.562C53.366 62.0307 52.904 62.7913 52.176 63.342C51.448 63.8927 50.51 64.168 49.362 64.168ZM57.6992 64.168C56.8592 64.168 56.1966 63.9067 55.7112 63.384C55.2352 62.8613 54.9972 62.082 54.9972 61.046V57.056H56.4812V60.892C56.4812 62.236 57.0319 62.908 58.1332 62.908C58.6839 62.908 59.1366 62.712 59.4912 62.32C59.8459 61.928 60.0232 61.368 60.0232 60.64V57.056H61.5072V64H60.1912L60.0792 62.782C59.8646 63.2113 59.5472 63.552 59.1272 63.804C58.7166 64.0467 58.2406 64.168 57.6992 64.168ZM63.395 64V57.056H64.725L64.851 58.372C65.0937 57.9147 65.4297 57.5553 65.859 57.294C66.2977 57.0233 66.825 56.888 67.441 56.888V58.442H67.035C66.6244 58.442 66.2557 58.512 65.929 58.652C65.6117 58.7827 65.355 59.0113 65.159 59.338C64.9724 59.6553 64.879 60.0987 64.879 60.668V64H63.395ZM68.7134 64V57.056H70.0434L70.1694 58.372C70.4121 57.9147 70.7481 57.5553 71.1774 57.294C71.6161 57.0233 72.1434 56.888 72.7594 56.888V58.442H72.3534C71.9427 58.442 71.5741 58.512 71.2474 58.652C70.9301 58.7827 70.6734 59.0113 70.4774 59.338C70.2907 59.6553 70.1974 60.0987 70.1974 60.668V64H68.7134ZM77.0883 64.168C76.407 64.168 75.8003 64.0187 75.2683 63.72C74.7457 63.412 74.335 62.9873 74.0363 62.446C73.7377 61.9047 73.5883 61.2747 73.5883 60.556C73.5883 59.828 73.733 59.1887 74.0223 58.638C74.321 58.0873 74.7317 57.658 75.2543 57.35C75.7863 57.042 76.4023 56.888 77.1023 56.888C77.7837 56.888 78.3763 57.042 78.8803 57.35C79.3843 57.6487 79.7763 58.05 80.0563 58.554C80.3363 59.058 80.4763 59.6133 80.4763 60.22C80.4763 60.3133 80.4717 60.416 80.4623 60.528C80.4623 60.6307 80.4577 60.7473 80.4483 60.878H75.0443C75.091 61.55 75.3103 62.0633 75.7023 62.418C76.1037 62.7633 76.5657 62.936 77.0883 62.936C77.5083 62.936 77.8583 62.8427 78.1383 62.656C78.4277 62.46 78.6423 62.1987 78.7823 61.872H80.2663C80.0797 62.5253 79.7063 63.0713 79.1463 63.51C78.5957 63.9487 77.9097 64.168 77.0883 64.168ZM77.0883 58.106C76.5937 58.106 76.155 58.2553 75.7723 58.554C75.3897 58.8433 75.1563 59.282 75.0723 59.87H78.9923C78.9643 59.3287 78.773 58.8993 78.4183 58.582C78.0637 58.2647 77.6203 58.106 77.0883 58.106ZM82.0161 64V57.056H83.3321L83.4441 58.274C83.6588 57.8447 83.9715 57.5087 84.3821 57.266C84.8021 57.014 85.2828 56.888 85.8241 56.888C86.6641 56.888 87.3221 57.1493 87.7981 57.672C88.2835 58.1947 88.5261 58.974 88.5261 60.01V64H87.0561V60.164C87.0561 58.82 86.5055 58.148 85.4041 58.148C84.8535 58.148 84.3961 58.344 84.0321 58.736C83.6775 59.128 83.5001 59.688 83.5001 60.416V64H82.0161ZM93.1859 64C92.5046 64 91.9633 63.8367 91.5619 63.51C91.1606 63.174 90.9599 62.5813 90.9599 61.732V58.302H89.7699V57.056H90.9599L91.1419 55.292H92.4439V57.056H94.4039V58.302H92.4439V61.732C92.4439 62.1147 92.5233 62.3807 92.6819 62.53C92.8499 62.67 93.1346 62.74 93.5359 62.74H94.3339V64H93.1859ZM99.5174 64V54.2H101.267L104.585 60.724L107.889 54.2H109.639V64H108.155V56.762L105.159 62.6H104.011L101.001 56.776V64H99.5174ZM114.823 64.168C114.16 64.168 113.563 64.0187 113.031 63.72C112.508 63.412 112.093 62.9873 111.785 62.446C111.477 61.8953 111.323 61.256 111.323 60.528C111.323 59.8 111.477 59.1653 111.785 58.624C112.102 58.0733 112.527 57.6487 113.059 57.35C113.591 57.042 114.183 56.888 114.837 56.888C115.499 56.888 116.092 57.042 116.615 57.35C117.147 57.6487 117.567 58.0733 117.875 58.624C118.192 59.1653 118.351 59.8 118.351 60.528C118.351 61.256 118.192 61.8953 117.875 62.446C117.567 62.9873 117.147 63.412 116.615 63.72C116.083 64.0187 115.485 64.168 114.823 64.168ZM114.823 62.894C115.177 62.894 115.504 62.8053 115.803 62.628C116.111 62.4507 116.358 62.1893 116.545 61.844C116.731 61.4893 116.825 61.0507 116.825 60.528C116.825 60.0053 116.731 59.5713 116.545 59.226C116.367 58.8713 116.125 58.6053 115.817 58.428C115.518 58.2507 115.191 58.162 114.837 58.162C114.482 58.162 114.151 58.2507 113.843 58.428C113.544 58.6053 113.301 58.8713 113.115 59.226C112.928 59.5713 112.835 60.0053 112.835 60.528C112.835 61.0507 112.928 61.4893 113.115 61.844C113.301 62.1893 113.544 62.4507 113.843 62.628C114.141 62.8053 114.468 62.894 114.823 62.894ZM121.546 64L118.942 57.056H120.496L122.428 62.586L124.36 57.056H125.9L123.31 64H121.546ZM130.012 64.168C129.331 64.168 128.724 64.0187 128.192 63.72C127.67 63.412 127.259 62.9873 126.96 62.446C126.662 61.9047 126.512 61.2747 126.512 60.556C126.512 59.828 126.657 59.1887 126.946 58.638C127.245 58.0873 127.656 57.658 128.178 57.35C128.71 57.042 129.326 56.888 130.026 56.888C130.708 56.888 131.3 57.042 131.804 57.35C132.308 57.6487 132.7 58.05 132.98 58.554C133.26 59.058 133.4 59.6133 133.4 60.22C133.4 60.3133 133.396 60.416 133.386 60.528C133.386 60.6307 133.382 60.7473 133.372 60.878H127.968C128.015 61.55 128.234 62.0633 128.626 62.418C129.028 62.7633 129.49 62.936 130.012 62.936C130.432 62.936 130.782 62.8427 131.062 62.656C131.352 62.46 131.566 62.1987 131.706 61.872H133.19C133.004 62.5253 132.63 63.0713 132.07 63.51C131.52 63.9487 130.834 64.168 130.012 64.168ZM130.012 58.106C129.518 58.106 129.079 58.2553 128.696 58.554C128.314 58.8433 128.08 59.282 127.996 59.87H131.916C131.888 59.3287 131.697 58.8993 131.342 58.582C130.988 58.2647 130.544 58.106 130.012 58.106ZM134.94 64V57.056H136.256L136.382 58.036C136.606 57.6813 136.9 57.4013 137.264 57.196C137.637 56.9907 138.067 56.888 138.552 56.888C139.653 56.888 140.419 57.322 140.848 58.19C141.1 57.7887 141.436 57.4713 141.856 57.238C142.285 57.0047 142.747 56.888 143.242 56.888C144.11 56.888 144.791 57.1493 145.286 57.672C145.781 58.1947 146.028 58.974 146.028 60.01V64H144.544V60.164C144.544 58.82 144.031 58.148 143.004 58.148C142.481 58.148 142.052 58.344 141.716 58.736C141.389 59.128 141.226 59.688 141.226 60.416V64H139.742V60.164C139.742 58.82 139.224 58.148 138.188 58.148C137.675 58.148 137.25 58.344 136.914 58.736C136.587 59.128 136.424 59.688 136.424 60.416V64H134.94ZM151.012 64.168C150.331 64.168 149.724 64.0187 149.192 63.72C148.67 63.412 148.259 62.9873 147.96 62.446C147.662 61.9047 147.512 61.2747 147.512 60.556C147.512 59.828 147.657 59.1887 147.946 58.638C148.245 58.0873 148.656 57.658 149.178 57.35C149.71 57.042 150.326 56.888 151.026 56.888C151.708 56.888 152.3 57.042 152.804 57.35C153.308 57.6487 153.7 58.05 153.98 58.554C154.26 59.058 154.4 59.6133 154.4 60.22C154.4 60.3133 154.396 60.416 154.386 60.528C154.386 60.6307 154.382 60.7473 154.372 60.878H148.968C149.015 61.55 149.234 62.0633 149.626 62.418C150.028 62.7633 150.49 62.936 151.012 62.936C151.432 62.936 151.782 62.8427 152.062 62.656C152.352 62.46 152.566 62.1987 152.706 61.872H154.19C154.004 62.5253 153.63 63.0713 153.07 63.51C152.52 63.9487 151.834 64.168 151.012 64.168ZM151.012 58.106C150.518 58.106 150.079 58.2553 149.696 58.554C149.314 58.8433 149.08 59.282 148.996 59.87H152.916C152.888 59.3287 152.697 58.8993 152.342 58.582C151.988 58.2647 151.544 58.106 151.012 58.106ZM155.94 64V57.056H157.256L157.368 58.274C157.583 57.8447 157.895 57.5087 158.306 57.266C158.726 57.014 159.207 56.888 159.748 56.888C160.588 56.888 161.246 57.1493 161.722 57.672C162.207 58.1947 162.45 58.974 162.45 60.01V64H160.98V60.164C160.98 58.82 160.429 58.148 159.328 58.148C158.777 58.148 158.32 58.344 157.956 58.736C157.601 59.128 157.424 59.688 157.424 60.416V64H155.94ZM167.11 64C166.428 64 165.887 63.8367 165.486 63.51C165.084 63.174 164.884 62.5813 164.884 61.732V58.302H163.694V57.056H164.884L165.066 55.292H166.368V57.056H168.328V58.302H166.368V61.732C166.368 62.1147 166.447 62.3807 166.606 62.53C166.774 62.67 167.058 62.74 167.46 62.74H168.258V64H167.11ZM173.441 64V54.2H174.925V62.824H179.377V64H173.441ZM183.866 64.168C183.203 64.168 182.606 64.0187 182.074 63.72C181.551 63.412 181.136 62.9873 180.828 62.446C180.52 61.8953 180.366 61.256 180.366 60.528C180.366 59.8 180.52 59.1653 180.828 58.624C181.145 58.0733 181.57 57.6487 182.102 57.35C182.634 57.042 183.226 56.888 183.88 56.888C184.542 56.888 185.135 57.042 185.658 57.35C186.19 57.6487 186.61 58.0733 186.918 58.624C187.235 59.1653 187.394 59.8 187.394 60.528C187.394 61.256 187.235 61.8953 186.918 62.446C186.61 62.9873 186.19 63.412 185.658 63.72C185.126 64.0187 184.528 64.168 183.866 64.168ZM183.866 62.894C184.22 62.894 184.547 62.8053 184.846 62.628C185.154 62.4507 185.401 62.1893 185.588 61.844C185.774 61.4893 185.868 61.0507 185.868 60.528C185.868 60.0053 185.774 59.5713 185.588 59.226C185.41 58.8713 185.168 58.6053 184.86 58.428C184.561 58.2507 184.234 58.162 183.88 58.162C183.525 58.162 183.194 58.2507 182.886 58.428C182.587 58.6053 182.344 58.8713 182.158 59.226C181.971 59.5713 181.878 60.0053 181.878 60.528C181.878 61.0507 181.971 61.4893 182.158 61.844C182.344 62.1893 182.587 62.4507 182.886 62.628C183.184 62.8053 183.511 62.894 183.866 62.894ZM192.289 64.168C191.607 64.168 190.996 64.014 190.455 63.706C189.923 63.398 189.503 62.9733 189.195 62.432C188.896 61.8813 188.747 61.2467 188.747 60.528C188.747 59.8093 188.896 59.1793 189.195 58.638C189.503 58.0873 189.923 57.658 190.455 57.35C190.996 57.042 191.607 56.888 192.289 56.888C193.147 56.888 193.866 57.112 194.445 57.56C195.033 58.008 195.411 58.6147 195.579 59.38H194.025C193.931 58.9973 193.726 58.6987 193.409 58.484C193.091 58.2693 192.718 58.162 192.289 58.162C191.925 58.162 191.589 58.2553 191.281 58.442C190.973 58.6193 190.725 58.8853 190.539 59.24C190.352 59.5853 190.259 60.0147 190.259 60.528C190.259 61.0413 190.352 61.4753 190.539 61.83C190.725 62.1753 190.973 62.4413 191.281 62.628C191.589 62.8147 191.925 62.908 192.289 62.908C192.718 62.908 193.091 62.8007 193.409 62.586C193.726 62.3713 193.931 62.068 194.025 61.676H195.579C195.42 62.4227 195.047 63.0247 194.459 63.482C193.871 63.9393 193.147 64.168 192.289 64.168ZM199.54 64.168C198.952 64.168 198.467 64.07 198.084 63.874C197.701 63.678 197.417 63.4213 197.23 63.104C197.043 62.7773 196.95 62.4227 196.95 62.04C196.95 61.368 197.211 60.836 197.734 60.444C198.257 60.052 199.003 59.856 199.974 59.856H201.794V59.73C201.794 59.1887 201.645 58.7827 201.346 58.512C201.057 58.2413 200.679 58.106 200.212 58.106C199.801 58.106 199.442 58.2087 199.134 58.414C198.835 58.61 198.653 58.904 198.588 59.296H197.104C197.151 58.792 197.319 58.3627 197.608 58.008C197.907 57.644 198.28 57.3687 198.728 57.182C199.185 56.986 199.685 56.888 200.226 56.888C201.197 56.888 201.948 57.1447 202.48 57.658C203.012 58.162 203.278 58.8527 203.278 59.73V64H201.99L201.864 62.81C201.668 63.1927 201.383 63.5147 201.01 63.776C200.637 64.0373 200.147 64.168 199.54 64.168ZM199.834 62.964C200.235 62.964 200.571 62.8707 200.842 62.684C201.122 62.488 201.337 62.2313 201.486 61.914C201.645 61.5967 201.743 61.2467 201.78 60.864H200.128C199.54 60.864 199.12 60.9667 198.868 61.172C198.625 61.3773 198.504 61.634 198.504 61.942C198.504 62.2593 198.621 62.5113 198.854 62.698C199.097 62.8753 199.423 62.964 199.834 62.964ZM207.784 64C207.102 64 206.561 63.8367 206.16 63.51C205.758 63.174 205.558 62.5813 205.558 61.732V58.302H204.368V57.056H205.558L205.74 55.292H207.042V57.056H209.002V58.302H207.042V61.732C207.042 62.1147 207.121 62.3807 207.28 62.53C207.448 62.67 207.732 62.74 208.134 62.74H208.932V64H207.784ZM211.372 55.74C211.092 55.74 210.858 55.656 210.672 55.488C210.494 55.3107 210.406 55.0913 210.406 54.83C210.406 54.5687 210.494 54.354 210.672 54.186C210.858 54.0087 211.092 53.92 211.372 53.92C211.652 53.92 211.88 54.0087 212.058 54.186C212.244 54.354 212.338 54.5687 212.338 54.83C212.338 55.0913 212.244 55.3107 212.058 55.488C211.88 55.656 211.652 55.74 211.372 55.74ZM210.63 64V57.056H212.114V64H210.63ZM217.321 64.168C216.658 64.168 216.061 64.0187 215.529 63.72C215.006 63.412 214.591 62.9873 214.283 62.446C213.975 61.8953 213.821 61.256 213.821 60.528C213.821 59.8 213.975 59.1653 214.283 58.624C214.6 58.0733 215.025 57.6487 215.557 57.35C216.089 57.042 216.681 56.888 217.335 56.888C217.997 56.888 218.59 57.042 219.113 57.35C219.645 57.6487 220.065 58.0733 220.373 58.624C220.69 59.1653 220.849 59.8 220.849 60.528C220.849 61.256 220.69 61.8953 220.373 62.446C220.065 62.9873 219.645 63.412 219.113 63.72C218.581 64.0187 217.983 64.168 217.321 64.168ZM217.321 62.894C217.675 62.894 218.002 62.8053 218.301 62.628C218.609 62.4507 218.856 62.1893 219.043 61.844C219.229 61.4893 219.323 61.0507 219.323 60.528C219.323 60.0053 219.229 59.5713 219.043 59.226C218.865 58.8713 218.623 58.6053 218.315 58.428C218.016 58.2507 217.689 58.162 217.335 58.162C216.98 58.162 216.649 58.2507 216.341 58.428C216.042 58.6053 215.799 58.8713 215.613 59.226C215.426 59.5713 215.333 60.0053 215.333 60.528C215.333 61.0507 215.426 61.4893 215.613 61.844C215.799 62.1893 216.042 62.4507 216.341 62.628C216.639 62.8053 216.966 62.894 217.321 62.894ZM222.454 64V57.056H223.77L223.882 58.274C224.096 57.8447 224.409 57.5087 224.82 57.266C225.24 57.014 225.72 56.888 226.262 56.888C227.102 56.888 227.76 57.1493 228.236 57.672C228.721 58.1947 228.964 58.974 228.964 60.01V64H227.494V60.164C227.494 58.82 226.943 58.148 225.842 58.148C225.291 58.148 224.834 58.344 224.47 58.736C224.115 59.128 223.938 59.688 223.938 60.416V64H222.454ZM231.299 64.084C231.019 64.084 230.786 63.9953 230.599 63.818C230.422 63.6313 230.333 63.412 230.333 63.16C230.333 62.8987 230.422 62.6793 230.599 62.502C230.786 62.3153 231.019 62.222 231.299 62.222C231.579 62.222 231.808 62.3153 231.985 62.502C232.163 62.6793 232.251 62.8987 232.251 63.16C232.251 63.412 232.163 63.6313 231.985 63.818C231.808 63.9953 231.579 64.084 231.299 64.084ZM231.299 58.75C231.019 58.75 230.786 58.6613 230.599 58.484C230.422 58.2973 230.333 58.078 230.333 57.826C230.333 57.5647 230.422 57.3453 230.599 57.168C230.786 56.9813 231.019 56.888 231.299 56.888C231.579 56.888 231.808 56.9813 231.985 57.168C232.163 57.3453 232.251 57.5647 232.251 57.826C232.251 58.078 232.163 58.2973 231.985 58.484C231.808 58.6613 231.579 58.75 231.299 58.75ZM237.329 64V54.2H239.457L242.579 60.416L245.659 54.2H247.787V64H245.995V57.238L243.265 62.6H241.851L239.121 57.238V64H237.329ZM252.978 64.168C252.306 64.168 251.7 64.014 251.158 63.706C250.626 63.398 250.202 62.9733 249.884 62.432C249.576 61.8813 249.422 61.2467 249.422 60.528C249.422 59.8093 249.581 59.1793 249.898 58.638C250.216 58.0873 250.64 57.658 251.172 57.35C251.714 57.042 252.32 56.888 252.992 56.888C253.655 56.888 254.252 57.042 254.784 57.35C255.326 57.658 255.75 58.0873 256.058 58.638C256.376 59.1793 256.534 59.8093 256.534 60.528C256.534 61.2467 256.376 61.8813 256.058 62.432C255.75 62.9733 255.326 63.398 254.784 63.706C254.243 64.014 253.641 64.168 252.978 64.168ZM252.978 62.614C253.445 62.614 253.851 62.4413 254.196 62.096C254.542 61.7413 254.714 61.2187 254.714 60.528C254.714 59.8373 254.542 59.3193 254.196 58.974C253.851 58.6193 253.45 58.442 252.992 58.442C252.516 58.442 252.106 58.6193 251.76 58.974C251.424 59.3193 251.256 59.8373 251.256 60.528C251.256 61.2187 251.424 61.7413 251.76 62.096C252.106 62.4413 252.512 62.614 252.978 62.614ZM258.137 64V57.056H259.719L259.859 58.232C260.073 57.8213 260.381 57.4947 260.783 57.252C261.193 57.0093 261.674 56.888 262.225 56.888C263.083 56.888 263.751 57.1587 264.227 57.7C264.703 58.2413 264.941 59.0347 264.941 60.08V64H263.149V60.248C263.149 59.6507 263.027 59.1933 262.785 58.876C262.542 58.5587 262.164 58.4 261.651 58.4C261.147 58.4 260.731 58.5773 260.405 58.932C260.087 59.2867 259.929 59.7813 259.929 60.416V64H258.137ZM269.048 64.168C268.451 64.168 267.961 64.0747 267.578 63.888C267.195 63.692 266.911 63.4353 266.724 63.118C266.537 62.8007 266.444 62.4507 266.444 62.068C266.444 61.424 266.696 60.9013 267.2 60.5C267.704 60.0987 268.46 59.898 269.468 59.898H271.232V59.73C271.232 59.254 271.097 58.904 270.826 58.68C270.555 58.456 270.219 58.344 269.818 58.344C269.454 58.344 269.137 58.4327 268.866 58.61C268.595 58.778 268.427 59.03 268.362 59.366H266.612C266.659 58.862 266.827 58.4233 267.116 58.05C267.415 57.6767 267.797 57.392 268.264 57.196C268.731 56.9907 269.253 56.888 269.832 56.888C270.821 56.888 271.601 57.1353 272.17 57.63C272.739 58.1247 273.024 58.8247 273.024 59.73V64H271.498L271.33 62.88C271.125 63.2533 270.835 63.5613 270.462 63.804C270.098 64.0467 269.627 64.168 269.048 64.168ZM269.454 62.768C269.967 62.768 270.364 62.6 270.644 62.264C270.933 61.928 271.115 61.5127 271.19 61.018H269.664C269.188 61.018 268.847 61.1067 268.642 61.284C268.437 61.452 268.334 61.662 268.334 61.914C268.334 62.1847 268.437 62.3947 268.642 62.544C268.847 62.6933 269.118 62.768 269.454 62.768ZM278.136 64.168C277.427 64.168 276.802 64.014 276.26 63.706C275.719 63.398 275.29 62.9687 274.972 62.418C274.664 61.8673 274.51 61.2373 274.51 60.528C274.51 59.8187 274.664 59.1887 274.972 58.638C275.29 58.0873 275.719 57.658 276.26 57.35C276.802 57.042 277.427 56.888 278.136 56.888C279.023 56.888 279.77 57.1213 280.376 57.588C280.983 58.0453 281.37 58.68 281.538 59.492H279.648C279.555 59.156 279.368 58.8947 279.088 58.708C278.818 58.512 278.496 58.414 278.122 58.414C277.628 58.414 277.208 58.6007 276.862 58.974C276.517 59.3473 276.344 59.8653 276.344 60.528C276.344 61.1907 276.517 61.7087 276.862 62.082C277.208 62.4553 277.628 62.642 278.122 62.642C278.496 62.642 278.818 62.5487 279.088 62.362C279.368 62.1753 279.555 61.9093 279.648 61.564H281.538C281.37 62.348 280.983 62.978 280.376 63.454C279.77 63.93 279.023 64.168 278.136 64.168ZM286.461 64.168C285.789 64.168 285.182 64.014 284.641 63.706C284.109 63.398 283.684 62.9733 283.367 62.432C283.059 61.8813 282.905 61.2467 282.905 60.528C282.905 59.8093 283.063 59.1793 283.381 58.638C283.698 58.0873 284.123 57.658 284.655 57.35C285.196 57.042 285.803 56.888 286.475 56.888C287.137 56.888 287.735 57.042 288.267 57.35C288.808 57.658 289.233 58.0873 289.541 58.638C289.858 59.1793 290.017 59.8093 290.017 60.528C290.017 61.2467 289.858 61.8813 289.541 62.432C289.233 62.9733 288.808 63.398 288.267 63.706C287.725 64.014 287.123 64.168 286.461 64.168ZM286.461 62.614C286.927 62.614 287.333 62.4413 287.679 62.096C288.024 61.7413 288.197 61.2187 288.197 60.528C288.197 59.8373 288.024 59.3193 287.679 58.974C287.333 58.6193 286.932 58.442 286.475 58.442C285.999 58.442 285.588 58.6193 285.243 58.974C284.907 59.3193 284.739 59.8373 284.739 60.528C284.739 61.2187 284.907 61.7413 285.243 62.096C285.588 62.4413 285.994 62.614 286.461 62.614ZM290.905 65.624L291.703 62.138H293.439L292.081 65.624H290.905ZM298.237 64V54.2H304.565V55.642H300.029V58.386H303.697V59.8H300.029V64H298.237ZM305.906 64V57.056H307.502L307.67 58.358C307.922 57.91 308.263 57.5553 308.692 57.294C309.131 57.0233 309.644 56.888 310.232 56.888V58.778H309.728C309.336 58.778 308.986 58.8387 308.678 58.96C308.37 59.0813 308.127 59.2913 307.95 59.59C307.782 59.8887 307.698 60.304 307.698 60.836V64H305.906ZM313.851 64.168C313.254 64.168 312.764 64.0747 312.381 63.888C311.998 63.692 311.714 63.4353 311.527 63.118C311.34 62.8007 311.247 62.4507 311.247 62.068C311.247 61.424 311.499 60.9013 312.003 60.5C312.507 60.0987 313.263 59.898 314.271 59.898H316.035V59.73C316.035 59.254 315.9 58.904 315.629 58.68C315.358 58.456 315.022 58.344 314.621 58.344C314.257 58.344 313.94 58.4327 313.669 58.61C313.398 58.778 313.23 59.03 313.165 59.366H311.415C311.462 58.862 311.63 58.4233 311.919 58.05C312.218 57.6767 312.6 57.392 313.067 57.196C313.534 56.9907 314.056 56.888 314.635 56.888C315.624 56.888 316.404 57.1353 316.973 57.63C317.542 58.1247 317.827 58.8247 317.827 59.73V64H316.301L316.133 62.88C315.928 63.2533 315.638 63.5613 315.265 63.804C314.901 64.0467 314.43 64.168 313.851 64.168ZM314.257 62.768C314.77 62.768 315.167 62.6 315.447 62.264C315.736 61.928 315.918 61.5127 315.993 61.018H314.467C313.991 61.018 313.65 61.1067 313.445 61.284C313.24 61.452 313.137 61.662 313.137 61.914C313.137 62.1847 313.24 62.3947 313.445 62.544C313.65 62.6933 313.921 62.768 314.257 62.768ZM319.537 64V57.056H321.119L321.259 58.232C321.474 57.8213 321.782 57.4947 322.183 57.252C322.594 57.0093 323.074 56.888 323.625 56.888C324.484 56.888 325.151 57.1587 325.627 57.7C326.103 58.2413 326.341 59.0347 326.341 60.08V64H324.549V60.248C324.549 59.6507 324.428 59.1933 324.185 58.876C323.942 58.5587 323.564 58.4 323.051 58.4C322.547 58.4 322.132 58.5773 321.805 58.932C321.488 59.2867 321.329 59.7813 321.329 60.416V64H319.537ZM331.457 64.168C330.747 64.168 330.122 64.014 329.581 63.706C329.039 63.398 328.61 62.9687 328.293 62.418C327.985 61.8673 327.831 61.2373 327.831 60.528C327.831 59.8187 327.985 59.1887 328.293 58.638C328.61 58.0873 329.039 57.658 329.581 57.35C330.122 57.042 330.747 56.888 331.457 56.888C332.343 56.888 333.09 57.1213 333.697 57.588C334.303 58.0453 334.691 58.68 334.859 59.492H332.969C332.875 59.156 332.689 58.8947 332.409 58.708C332.138 58.512 331.816 58.414 331.443 58.414C330.948 58.414 330.528 58.6007 330.183 58.974C329.837 59.3473 329.665 59.8653 329.665 60.528C329.665 61.1907 329.837 61.7087 330.183 62.082C330.528 62.4553 330.948 62.642 331.443 62.642C331.816 62.642 332.138 62.5487 332.409 62.362C332.689 62.1753 332.875 61.9093 332.969 61.564H334.859C334.691 62.348 334.303 62.978 333.697 63.454C333.09 63.93 332.343 64.168 331.457 64.168ZM339.823 64.168C339.123 64.168 338.502 64.0187 337.961 63.72C337.42 63.4213 336.995 63.0013 336.687 62.46C336.379 61.9187 336.225 61.2933 336.225 60.584C336.225 59.8653 336.374 59.226 336.673 58.666C336.981 58.106 337.401 57.672 337.933 57.364C338.474 57.0467 339.109 56.888 339.837 56.888C340.518 56.888 341.12 57.0373 341.643 57.336C342.166 57.6347 342.572 58.0453 342.861 58.568C343.16 59.0813 343.309 59.6553 343.309 60.29C343.309 60.3927 343.304 60.5 343.295 60.612C343.295 60.724 343.29 60.8407 343.281 60.962H338.003C338.04 61.5033 338.227 61.928 338.563 62.236C338.908 62.544 339.324 62.698 339.809 62.698C340.173 62.698 340.476 62.6187 340.719 62.46C340.971 62.292 341.158 62.0773 341.279 61.816H343.099C342.968 62.2547 342.749 62.656 342.441 63.02C342.142 63.3747 341.769 63.6547 341.321 63.86C340.882 64.0653 340.383 64.168 339.823 64.168ZM339.837 58.344C339.398 58.344 339.011 58.47 338.675 58.722C338.339 58.9647 338.124 59.338 338.031 59.842H341.489C341.461 59.3847 341.293 59.0207 340.985 58.75C340.677 58.4793 340.294 58.344 339.837 58.344ZM345.922 59.002C345.596 59.002 345.325 58.8993 345.11 58.694C344.905 58.4887 344.802 58.2413 344.802 57.952C344.802 57.6533 344.905 57.4013 345.11 57.196C345.325 56.9907 345.596 56.888 345.922 56.888C346.249 56.888 346.515 56.9907 346.72 57.196C346.935 57.4013 347.042 57.6533 347.042 57.952C347.042 58.2413 346.935 58.4887 346.72 58.694C346.515 58.8993 346.249 59.002 345.922 59.002ZM344.242 65.624L345.04 62.138H346.776L345.418 65.624H344.242ZM351.913 64V54.2H353.705V62.6H358.045V64H351.913ZM361.976 64.168C361.379 64.168 360.889 64.0747 360.506 63.888C360.123 63.692 359.839 63.4353 359.652 63.118C359.465 62.8007 359.372 62.4507 359.372 62.068C359.372 61.424 359.624 60.9013 360.128 60.5C360.632 60.0987 361.388 59.898 362.396 59.898H364.16V59.73C364.16 59.254 364.025 58.904 363.754 58.68C363.483 58.456 363.147 58.344 362.746 58.344C362.382 58.344 362.065 58.4327 361.794 58.61C361.523 58.778 361.355 59.03 361.29 59.366H359.54C359.587 58.862 359.755 58.4233 360.044 58.05C360.343 57.6767 360.725 57.392 361.192 57.196C361.659 56.9907 362.181 56.888 362.76 56.888C363.749 56.888 364.529 57.1353 365.098 57.63C365.667 58.1247 365.952 58.8247 365.952 59.73V64H364.426L364.258 62.88C364.053 63.2533 363.763 63.5613 363.39 63.804C363.026 64.0467 362.555 64.168 361.976 64.168ZM362.382 62.768C362.895 62.768 363.292 62.6 363.572 62.264C363.861 61.928 364.043 61.5127 364.118 61.018H362.592C362.116 61.018 361.775 61.1067 361.57 61.284C361.365 61.452 361.262 61.662 361.262 61.914C361.262 62.1847 361.365 62.3947 361.57 62.544C361.775 62.6933 362.046 62.768 362.382 62.768ZM370.66 64C369.932 64 369.349 63.8227 368.91 63.468C368.472 63.1133 368.252 62.4833 368.252 61.578V58.554H367.062V57.056H368.252L368.462 55.194H370.044V57.056H371.92V58.554H370.044V61.592C370.044 61.928 370.114 62.1613 370.254 62.292C370.404 62.4133 370.656 62.474 371.01 62.474H371.878V64H370.66ZM374.425 55.978C374.098 55.978 373.827 55.88 373.613 55.684C373.407 55.488 373.305 55.2407 373.305 54.942C373.305 54.6433 373.407 54.4007 373.613 54.214C373.827 54.018 374.098 53.92 374.425 53.92C374.751 53.92 375.017 54.018 375.223 54.214C375.437 54.4007 375.545 54.6433 375.545 54.942C375.545 55.2407 375.437 55.488 375.223 55.684C375.017 55.88 374.751 55.978 374.425 55.978ZM373.529 64V57.056H375.321V64H373.529ZM380.285 64C379.557 64 378.974 63.8227 378.535 63.468C378.097 63.1133 377.877 62.4833 377.877 61.578V58.554H376.687V57.056H377.877L378.087 55.194H379.669V57.056H381.545V58.554H379.669V61.592C379.669 61.928 379.739 62.1613 379.879 62.292C380.029 62.4133 380.281 62.474 380.635 62.474H381.503V64H380.285ZM385.688 64.168C384.82 64.168 384.148 63.8973 383.672 63.356C383.205 62.8147 382.972 62.0213 382.972 60.976V57.056H384.75V60.808C384.75 61.4053 384.871 61.8627 385.114 62.18C385.356 62.4973 385.739 62.656 386.262 62.656C386.756 62.656 387.162 62.4787 387.48 62.124C387.806 61.7693 387.97 61.2747 387.97 60.64V57.056H389.762V64H388.18L388.04 62.824C387.825 63.2347 387.512 63.5613 387.102 63.804C386.7 64.0467 386.229 64.168 385.688 64.168ZM394.793 64.168C394.14 64.168 393.557 64.0093 393.043 63.692C392.53 63.3747 392.124 62.9407 391.825 62.39C391.527 61.8393 391.377 61.214 391.377 60.514C391.377 59.814 391.527 59.1933 391.825 58.652C392.124 58.1013 392.53 57.672 393.043 57.364C393.557 57.0467 394.14 56.888 394.793 56.888C395.316 56.888 395.773 56.986 396.165 57.182C396.557 57.378 396.875 57.6533 397.117 58.008V53.92H398.909V64H397.313L397.117 63.006C396.893 63.314 396.595 63.5847 396.221 63.818C395.857 64.0513 395.381 64.168 394.793 64.168ZM395.171 62.6C395.75 62.6 396.221 62.4087 396.585 62.026C396.959 61.634 397.145 61.1347 397.145 60.528C397.145 59.9213 396.959 59.4267 396.585 59.044C396.221 58.652 395.75 58.456 395.171 58.456C394.602 58.456 394.131 58.6473 393.757 59.03C393.384 59.4127 393.197 59.9073 393.197 60.514C393.197 61.1207 393.384 61.62 393.757 62.012C394.131 62.404 394.602 62.6 395.171 62.6ZM404.108 64.168C403.408 64.168 402.788 64.0187 402.246 63.72C401.705 63.4213 401.28 63.0013 400.972 62.46C400.664 61.9187 400.51 61.2933 400.51 60.584C400.51 59.8653 400.66 59.226 400.958 58.666C401.266 58.106 401.686 57.672 402.218 57.364C402.76 57.0467 403.394 56.888 404.122 56.888C404.804 56.888 405.406 57.0373 405.928 57.336C406.451 57.6347 406.857 58.0453 407.146 58.568C407.445 59.0813 407.594 59.6553 407.594 60.29C407.594 60.3927 407.59 60.5 407.58 60.612C407.58 60.724 407.576 60.8407 407.566 60.962H402.288C402.326 61.5033 402.512 61.928 402.848 62.236C403.194 62.544 403.609 62.698 404.094 62.698C404.458 62.698 404.762 62.6187 405.004 62.46C405.256 62.292 405.443 62.0773 405.564 61.816H407.384C407.254 62.2547 407.034 62.656 406.726 63.02C406.428 63.3747 406.054 63.6547 405.606 63.86C405.168 64.0653 404.668 64.168 404.108 64.168ZM404.122 58.344C403.684 58.344 403.296 58.47 402.96 58.722C402.624 58.9647 402.41 59.338 402.316 59.842H405.774C405.746 59.3847 405.578 59.0207 405.27 58.75C404.962 58.4793 404.58 58.344 404.122 58.344ZM415.685 64.168C415.041 64.168 414.458 64.056 413.935 63.832C413.413 63.5987 412.993 63.244 412.675 62.768C412.358 62.292 412.19 61.6947 412.171 60.976H413.935C413.945 61.452 414.099 61.8533 414.397 62.18C414.705 62.4973 415.135 62.656 415.685 62.656C416.208 62.656 416.609 62.5113 416.889 62.222C417.169 61.9327 417.309 61.5687 417.309 61.13C417.309 60.6167 417.123 60.2293 416.749 59.968C416.385 59.6973 415.914 59.562 415.335 59.562H414.607V58.092H415.349C415.825 58.092 416.222 57.98 416.539 57.756C416.857 57.532 417.015 57.2007 417.015 56.762C417.015 56.398 416.894 56.1087 416.651 55.894C416.418 55.67 416.091 55.558 415.671 55.558C415.214 55.558 414.855 55.6933 414.593 55.964C414.341 56.2347 414.201 56.566 414.173 56.958H412.423C412.461 56.0527 412.773 55.3387 413.361 54.816C413.959 54.2933 414.729 54.032 415.671 54.032C416.343 54.032 416.908 54.1533 417.365 54.396C417.832 54.6293 418.182 54.942 418.415 55.334C418.658 55.726 418.779 56.16 418.779 56.636C418.779 57.1867 418.625 57.6533 418.317 58.036C418.019 58.4093 417.645 58.6613 417.197 58.792C417.748 58.904 418.196 59.1747 418.541 59.604C418.887 60.024 419.059 60.556 419.059 61.2C419.059 61.7413 418.929 62.236 418.667 62.684C418.406 63.132 418.023 63.4913 417.519 63.762C417.025 64.0327 416.413 64.168 415.685 64.168ZM424.277 64.168C423.605 64.168 422.999 64.0513 422.457 63.818C421.916 63.5753 421.482 63.2347 421.155 62.796C420.838 62.3573 420.679 61.8487 420.679 61.27C420.679 60.6727 420.833 60.15 421.141 59.702C421.459 59.254 421.874 58.932 422.387 58.736C421.939 58.54 421.585 58.26 421.323 57.896C421.062 57.5227 420.931 57.1073 420.931 56.65C420.931 56.1833 421.057 55.754 421.309 55.362C421.561 54.9607 421.935 54.6387 422.429 54.396C422.933 54.1533 423.549 54.032 424.277 54.032C425.005 54.032 425.617 54.1533 426.111 54.396C426.606 54.6387 426.979 54.9607 427.231 55.362C427.483 55.754 427.609 56.1833 427.609 56.65C427.609 57.098 427.474 57.5133 427.203 57.896C426.942 58.2693 426.592 58.5493 426.153 58.736C426.676 58.932 427.091 59.254 427.399 59.702C427.707 60.15 427.861 60.6727 427.861 61.27C427.861 61.8487 427.703 62.3573 427.385 62.796C427.068 63.2347 426.634 63.5753 426.083 63.818C425.542 64.0513 424.94 64.168 424.277 64.168ZM424.277 58.204C424.763 58.204 425.145 58.078 425.425 57.826C425.705 57.574 425.845 57.252 425.845 56.86C425.845 56.4307 425.705 56.0947 425.425 55.852C425.155 55.6093 424.772 55.488 424.277 55.488C423.773 55.488 423.386 55.6093 423.115 55.852C422.845 56.0947 422.709 56.4307 422.709 56.86C422.709 57.2613 422.845 57.588 423.115 57.84C423.395 58.0827 423.783 58.204 424.277 58.204ZM424.277 62.67C424.875 62.67 425.327 62.5253 425.635 62.236C425.943 61.9373 426.097 61.564 426.097 61.116C426.097 60.6213 425.934 60.234 425.607 59.954C425.29 59.674 424.847 59.534 424.277 59.534C423.708 59.534 423.255 59.674 422.919 59.954C422.593 60.234 422.429 60.6213 422.429 61.116C422.429 61.564 422.583 61.9373 422.891 62.236C423.209 62.5253 423.671 62.67 424.277 62.67ZM430.352 64.098C430.025 64.098 429.755 63.9953 429.54 63.79C429.335 63.5847 429.232 63.3373 429.232 63.048C429.232 62.7493 429.335 62.4973 429.54 62.292C429.755 62.0867 430.025 61.984 430.352 61.984C430.679 61.984 430.945 62.0867 431.15 62.292C431.365 62.4973 431.472 62.7493 431.472 63.048C431.472 63.3373 431.365 63.5847 431.15 63.79C430.945 63.9953 430.679 64.098 430.352 64.098ZM433.123 64L436.819 55.726H431.989V54.2H438.667V55.474L434.985 64H433.123ZM443.214 64.168C442.495 64.168 441.875 64.042 441.352 63.79C440.839 63.538 440.433 63.1927 440.134 62.754C439.845 62.306 439.677 61.802 439.63 61.242H441.38C441.464 61.6433 441.669 61.9793 441.996 62.25C442.323 62.5113 442.729 62.642 443.214 62.642C443.737 62.642 444.161 62.4507 444.488 62.068C444.824 61.6853 444.992 61.2093 444.992 60.64C444.992 60.052 444.824 59.5853 444.488 59.24C444.161 58.8947 443.746 58.722 443.242 58.722C442.822 58.722 442.458 58.8247 442.15 59.03C441.842 59.2353 441.623 59.492 441.492 59.8H439.77L440.61 54.2H446.042V55.768H441.954L441.506 58.036C441.711 57.812 441.991 57.63 442.346 57.49C442.701 57.3407 443.097 57.266 443.536 57.266C444.236 57.266 444.819 57.4247 445.286 57.742C445.753 58.05 446.107 58.4607 446.35 58.974C446.593 59.478 446.714 60.0287 446.714 60.626C446.714 61.3073 446.565 61.914 446.266 62.446C445.977 62.978 445.566 63.398 445.034 63.706C444.511 64.014 443.905 64.168 443.214 64.168ZM449.446 64V56.244L447.836 56.622V55.25L450.202 54.2H451.308V64H449.446ZM454.272 64V56.244L452.662 56.622V55.25L455.028 54.2H456.134V64H454.272ZM459.588 58.036C459.233 58.036 458.907 57.9567 458.608 57.798C458.309 57.63 458.067 57.3967 457.88 57.098C457.703 56.7993 457.614 56.4493 457.614 56.048C457.614 55.6373 457.703 55.2827 457.88 54.984C458.067 54.676 458.309 54.4427 458.608 54.284C458.916 54.116 459.247 54.032 459.602 54.032C459.966 54.032 460.297 54.116 460.596 54.284C460.895 54.4427 461.133 54.676 461.31 54.984C461.497 55.2827 461.59 55.6373 461.59 56.048C461.59 56.4493 461.497 56.7993 461.31 57.098C461.133 57.3967 460.89 57.63 460.582 57.798C460.283 57.9567 459.952 58.036 459.588 58.036ZM459.588 56.888C459.784 56.888 459.966 56.818 460.134 56.678C460.311 56.538 460.4 56.3233 460.4 56.034C460.4 55.7447 460.316 55.53 460.148 55.39C459.98 55.25 459.798 55.18 459.602 55.18C459.415 55.18 459.233 55.25 459.056 55.39C458.888 55.53 458.804 55.7447 458.804 56.034C458.804 56.3233 458.888 56.538 459.056 56.678C459.224 56.818 459.401 56.888 459.588 56.888ZM466.415 64V54.2H468.207L472.813 61.102V54.2H474.605V64H472.813L468.207 57.112V64H466.415ZM475.749 65.624L476.547 62.138H478.283L476.925 65.624H475.749ZM486.427 64.168C485.746 64.168 485.172 64.0373 484.705 63.776C484.238 63.5053 483.874 63.1553 483.613 62.726C483.352 62.2967 483.198 61.8347 483.151 61.34H484.817C484.892 61.7693 485.069 62.1007 485.349 62.334C485.638 62.5673 486.002 62.684 486.441 62.684C487.066 62.684 487.57 62.3993 487.953 61.83C488.336 61.2513 488.541 60.374 488.569 59.198C488.345 59.5807 488.004 59.898 487.547 60.15C487.099 60.402 486.604 60.528 486.063 60.528C485.522 60.528 485.013 60.3973 484.537 60.136C484.061 59.8747 483.674 59.506 483.375 59.03C483.076 58.554 482.927 57.994 482.927 57.35C482.927 56.762 483.072 56.216 483.361 55.712C483.65 55.208 484.052 54.802 484.565 54.494C485.078 54.186 485.68 54.032 486.371 54.032C487.108 54.032 487.729 54.1673 488.233 54.438C488.737 54.7087 489.138 55.0727 489.437 55.53C489.745 55.9873 489.964 56.496 490.095 57.056C490.235 57.616 490.305 58.19 490.305 58.778C490.305 59.87 490.151 60.822 489.843 61.634C489.544 62.4367 489.101 63.062 488.513 63.51C487.934 63.9487 487.239 64.168 486.427 64.168ZM486.483 59.016C486.828 59.016 487.141 58.9413 487.421 58.792C487.701 58.6333 487.92 58.428 488.079 58.176C488.238 57.9147 488.317 57.6253 488.317 57.308C488.317 56.804 488.14 56.3887 487.785 56.062C487.44 55.7353 487.001 55.572 486.469 55.572C485.946 55.572 485.512 55.7353 485.167 56.062C484.822 56.3793 484.649 56.7853 484.649 57.28C484.649 57.8027 484.822 58.2227 485.167 58.54C485.512 58.8573 485.951 59.016 486.483 59.016ZM492.258 64.098C491.931 64.098 491.661 63.9953 491.446 63.79C491.241 63.5847 491.138 63.3373 491.138 63.048C491.138 62.7493 491.241 62.4973 491.446 62.292C491.661 62.0867 491.931 61.984 492.258 61.984C492.585 61.984 492.851 62.0867 493.056 62.292C493.271 62.4973 493.378 62.7493 493.378 63.048C493.378 63.3373 493.271 63.5847 493.056 63.79C492.851 63.9953 492.585 64.098 492.258 64.098ZM494.655 64V62.698C495.253 62.2033 495.831 61.7133 496.391 61.228C496.961 60.7427 497.465 60.262 497.903 59.786C498.351 59.31 498.706 58.848 498.967 58.4C499.238 57.9427 499.373 57.4993 499.373 57.07C499.373 56.6687 499.261 56.314 499.037 56.006C498.823 55.698 498.463 55.544 497.959 55.544C497.446 55.544 497.059 55.712 496.797 56.048C496.536 56.384 496.405 56.79 496.405 57.266H494.669C494.688 56.5473 494.847 55.95 495.145 55.474C495.444 54.9887 495.841 54.6293 496.335 54.396C496.83 54.1533 497.385 54.032 498.001 54.032C499 54.032 499.775 54.3073 500.325 54.858C500.885 55.3993 501.165 56.104 501.165 56.972C501.165 57.5133 501.039 58.0407 500.787 58.554C500.545 59.0673 500.223 59.562 499.821 60.038C499.42 60.514 498.986 60.962 498.519 61.382C498.053 61.7927 497.6 62.1753 497.161 62.53H501.403V64H494.655ZM506.841 64.168C505.936 64.168 505.161 63.958 504.517 63.538C503.873 63.1087 503.374 62.516 503.019 61.76C502.674 60.9947 502.501 60.108 502.501 59.1C502.501 58.1013 502.674 57.2193 503.019 56.454C503.374 55.6887 503.873 55.096 504.517 54.676C505.161 54.2467 505.936 54.032 506.841 54.032C507.746 54.032 508.521 54.2467 509.165 54.676C509.809 55.096 510.304 55.6887 510.649 56.454C511.004 57.2193 511.181 58.1013 511.181 59.1C511.181 60.108 511.004 60.9947 510.649 61.76C510.304 62.516 509.809 63.1087 509.165 63.538C508.521 63.958 507.746 64.168 506.841 64.168ZM506.841 62.558C507.578 62.558 508.18 62.25 508.647 61.634C509.114 61.018 509.347 60.1733 509.347 59.1C509.347 58.0267 509.114 57.182 508.647 56.566C508.18 55.95 507.578 55.642 506.841 55.642C506.094 55.642 505.488 55.95 505.021 56.566C504.564 57.182 504.335 58.0267 504.335 59.1C504.335 60.1733 504.564 61.018 505.021 61.634C505.488 62.25 506.094 62.558 506.841 62.558ZM512.456 64V62.698C513.054 62.2033 513.632 61.7133 514.192 61.228C514.762 60.7427 515.266 60.262 515.704 59.786C516.152 59.31 516.507 58.848 516.768 58.4C517.039 57.9427 517.174 57.4993 517.174 57.07C517.174 56.6687 517.062 56.314 516.838 56.006C516.624 55.698 516.264 55.544 515.76 55.544C515.247 55.544 514.86 55.712 514.598 56.048C514.337 56.384 514.206 56.79 514.206 57.266H512.47C512.489 56.5473 512.648 55.95 512.946 55.474C513.245 54.9887 513.642 54.6293 514.136 54.396C514.631 54.1533 515.186 54.032 515.802 54.032C516.801 54.032 517.576 54.3073 518.126 54.858C518.686 55.3993 518.966 56.104 518.966 56.972C518.966 57.5133 518.84 58.0407 518.588 58.554C518.346 59.0673 518.024 59.562 517.622 60.038C517.221 60.514 516.787 60.962 516.32 61.382C515.854 61.7927 515.401 62.1753 514.962 62.53H519.204V64H512.456ZM521.129 64L524.825 55.726H519.995V54.2H526.673V55.474L522.991 64H521.129ZM529.602 58.036C529.247 58.036 528.92 57.9567 528.622 57.798C528.323 57.63 528.08 57.3967 527.894 57.098C527.716 56.7993 527.628 56.4493 527.628 56.048C527.628 55.6373 527.716 55.2827 527.894 54.984C528.08 54.676 528.323 54.4427 528.622 54.284C528.93 54.116 529.261 54.032 529.616 54.032C529.98 54.032 530.311 54.116 530.61 54.284C530.908 54.4427 531.146 54.676 531.324 54.984C531.51 55.2827 531.604 55.6373 531.604 56.048C531.604 56.4493 531.51 56.7993 531.324 57.098C531.146 57.3967 530.904 57.63 530.596 57.798C530.297 57.9567 529.966 58.036 529.602 58.036ZM529.602 56.888C529.798 56.888 529.98 56.818 530.148 56.678C530.325 56.538 530.414 56.3233 530.414 56.034C530.414 55.7447 530.33 55.53 530.162 55.39C529.994 55.25 529.812 55.18 529.616 55.18C529.429 55.18 529.247 55.25 529.07 55.39C528.902 55.53 528.818 55.7447 528.818 56.034C528.818 56.3233 528.902 56.538 529.07 56.678C529.238 56.818 529.415 56.888 529.602 56.888ZM538.417 64L535.827 54.2H537.745L539.509 61.998L541.581 54.2H543.555L545.571 61.998L547.335 54.2H549.267L546.607 64H544.479L542.533 56.734L540.531 64H538.417Z" fill="#333333"/>
<path d="M48.228 36.168C47.5093 36.168 46.8793 36.042 46.338 35.79C45.7967 35.538 45.372 35.1787 45.064 34.712C44.7653 34.2453 44.6113 33.69 44.602 33.046H46.17C46.1793 33.5687 46.3613 34.012 46.716 34.376C47.0707 34.74 47.57 34.922 48.214 34.922C48.7833 34.922 49.2267 34.7867 49.544 34.516C49.8707 34.236 50.034 33.8813 50.034 33.452C50.034 33.1067 49.9547 32.8267 49.796 32.612C49.6467 32.3973 49.4367 32.22 49.166 32.08C48.9047 31.94 48.6013 31.814 48.256 31.702C47.9107 31.59 47.5467 31.4687 47.164 31.338C46.408 31.086 45.8387 30.7593 45.456 30.358C45.0827 29.9567 44.896 29.4293 44.896 28.776C44.8867 28.2253 45.0127 27.7447 45.274 27.334C45.5447 26.9233 45.918 26.606 46.394 26.382C46.8793 26.1487 47.444 26.032 48.088 26.032C48.7227 26.032 49.278 26.1487 49.754 26.382C50.2393 26.6153 50.6173 26.942 50.888 27.362C51.1587 27.7727 51.2987 28.2533 51.308 28.804H49.74C49.74 28.552 49.6747 28.314 49.544 28.09C49.4133 27.8567 49.222 27.6653 48.97 27.516C48.718 27.3667 48.41 27.292 48.046 27.292C47.5793 27.2827 47.192 27.3993 46.884 27.642C46.5853 27.8847 46.436 28.2207 46.436 28.65C46.436 29.0327 46.548 29.3267 46.772 29.532C46.996 29.7373 47.304 29.91 47.696 30.05C48.088 30.1807 48.536 30.3347 49.04 30.512C49.5253 30.6707 49.9593 30.862 50.342 31.086C50.7247 31.31 51.028 31.604 51.252 31.968C51.4853 32.332 51.602 32.794 51.602 33.354C51.602 33.8487 51.476 34.3107 51.224 34.74C50.972 35.16 50.594 35.5053 50.09 35.776C49.586 36.0373 48.9653 36.168 48.228 36.168ZM53.1685 36V25.92H54.6525V30.176C54.8858 29.7747 55.2078 29.462 55.6185 29.238C56.0385 29.0047 56.5005 28.888 57.0045 28.888C57.8351 28.888 58.4885 29.1493 58.9645 29.672C59.4405 30.1947 59.6785 30.974 59.6785 32.01V36H58.2085V32.164C58.2085 30.82 57.6718 30.148 56.5985 30.148C56.0385 30.148 55.5718 30.344 55.1985 30.736C54.8345 31.128 54.6525 31.688 54.6525 32.416V36H53.1685ZM62.2663 27.74C61.9863 27.74 61.7529 27.656 61.5663 27.488C61.3889 27.3107 61.3003 27.0913 61.3003 26.83C61.3003 26.5687 61.3889 26.354 61.5663 26.186C61.7529 26.0087 61.9863 25.92 62.2663 25.92C62.5463 25.92 62.7749 26.0087 62.9523 26.186C63.1389 26.354 63.2323 26.5687 63.2323 26.83C63.2323 27.0913 63.1389 27.3107 62.9523 27.488C62.7749 27.656 62.5463 27.74 62.2663 27.74ZM61.5243 36V29.056H63.0083V36H61.5243ZM64.9673 39.08V29.056H66.2973L66.4513 30.134C66.6753 29.8073 66.9833 29.518 67.3753 29.266C67.7673 29.014 68.2713 28.888 68.8873 28.888C69.5593 28.888 70.152 29.0467 70.6653 29.364C71.1786 29.6813 71.58 30.1153 71.8693 30.666C72.168 31.2167 72.3173 31.842 72.3173 32.542C72.3173 33.242 72.168 33.8673 71.8693 34.418C71.58 34.9593 71.1786 35.3887 70.6653 35.706C70.152 36.014 69.5546 36.168 68.8733 36.168C68.332 36.168 67.8513 36.0607 67.4313 35.846C67.0206 35.6313 66.694 35.328 66.4513 34.936V39.08H64.9673ZM68.6213 34.88C69.256 34.88 69.7786 34.6653 70.1893 34.236C70.6 33.7973 70.8053 33.228 70.8053 32.528C70.8053 32.0707 70.712 31.6647 70.5253 31.31C70.3386 30.9553 70.082 30.68 69.7553 30.484C69.4286 30.2787 69.0506 30.176 68.6213 30.176C67.9866 30.176 67.464 30.3953 67.0533 30.834C66.652 31.2727 66.4513 31.8373 66.4513 32.528C66.4513 33.228 66.652 33.7973 67.0533 34.236C67.464 34.6653 67.9866 34.88 68.6213 34.88ZM73.9224 36V29.056H75.2384L75.3644 30.036C75.5884 29.6813 75.8824 29.4013 76.2464 29.196C76.6197 28.9907 77.049 28.888 77.5344 28.888C78.6357 28.888 79.401 29.322 79.8304 30.19C80.0824 29.7887 80.4184 29.4713 80.8384 29.238C81.2677 29.0047 81.7297 28.888 82.2244 28.888C83.0924 28.888 83.7737 29.1493 84.2684 29.672C84.763 30.1947 85.0104 30.974 85.0104 32.01V36H83.5264V32.164C83.5264 30.82 83.013 30.148 81.9864 30.148C81.4637 30.148 81.0344 30.344 80.6984 30.736C80.3717 31.128 80.2084 31.688 80.2084 32.416V36H78.7244V32.164C78.7244 30.82 78.2064 30.148 77.1704 30.148C76.657 30.148 76.2324 30.344 75.8964 30.736C75.5697 31.128 75.4064 31.688 75.4064 32.416V36H73.9224ZM89.9946 36.168C89.3133 36.168 88.7066 36.0187 88.1746 35.72C87.6519 35.412 87.2413 34.9873 86.9426 34.446C86.6439 33.9047 86.4946 33.2747 86.4946 32.556C86.4946 31.828 86.6393 31.1887 86.9286 30.638C87.2273 30.0873 87.6379 29.658 88.1606 29.35C88.6926 29.042 89.3086 28.888 90.0086 28.888C90.6899 28.888 91.2826 29.042 91.7866 29.35C92.2906 29.6487 92.6826 30.05 92.9626 30.554C93.2426 31.058 93.3826 31.6133 93.3826 32.22C93.3826 32.3133 93.3779 32.416 93.3686 32.528C93.3686 32.6307 93.3639 32.7473 93.3546 32.878H87.9506C87.9973 33.55 88.2166 34.0633 88.6086 34.418C89.0099 34.7633 89.4719 34.936 89.9946 34.936C90.4146 34.936 90.7646 34.8427 91.0446 34.656C91.3339 34.46 91.5486 34.1987 91.6886 33.872H93.1726C92.9859 34.5253 92.6126 35.0713 92.0526 35.51C91.5019 35.9487 90.8159 36.168 89.9946 36.168ZM89.9946 30.106C89.4999 30.106 89.0613 30.2553 88.6786 30.554C88.2959 30.8433 88.0626 31.282 87.9786 31.87H91.8986C91.8706 31.3287 91.6793 30.8993 91.3246 30.582C90.9699 30.2647 90.5266 30.106 89.9946 30.106ZM94.9224 36V29.056H96.2384L96.3504 30.274C96.565 29.8447 96.8777 29.5087 97.2884 29.266C97.7084 29.014 98.189 28.888 98.7304 28.888C99.5704 28.888 100.228 29.1493 100.704 29.672C101.19 30.1947 101.432 30.974 101.432 32.01V36H99.9624V32.164C99.9624 30.82 99.4117 30.148 98.3104 30.148C97.7597 30.148 97.3024 30.344 96.9384 30.736C96.5837 31.128 96.4064 31.688 96.4064 32.416V36H94.9224ZM106.092 36C105.411 36 104.87 35.8367 104.468 35.51C104.067 35.174 103.866 34.5813 103.866 33.732V30.302H102.676V29.056H103.866L104.048 27.292H105.35V29.056H107.31V30.302H105.35V33.732C105.35 34.1147 105.43 34.3807 105.588 34.53C105.756 34.67 106.041 34.74 106.442 34.74H107.24V36H106.092ZM112.424 36V26.2H113.908V36H112.424ZM115.896 36V26.2H119.074C120.222 26.2 121.165 26.4007 121.902 26.802C122.649 27.2033 123.2 27.7727 123.554 28.51C123.918 29.238 124.1 30.106 124.1 31.114C124.1 32.1127 123.918 32.9807 123.554 33.718C123.2 34.446 122.649 35.0107 121.902 35.412C121.165 35.804 120.222 36 119.074 36H115.896ZM117.38 34.74H119.018C119.905 34.74 120.605 34.5953 121.118 34.306C121.641 34.0167 122.014 33.6013 122.238 33.06C122.472 32.5187 122.588 31.87 122.588 31.114C122.588 30.358 122.472 29.7047 122.238 29.154C122.014 28.6033 121.641 28.1833 121.118 27.894C120.605 27.5953 119.905 27.446 119.018 27.446H117.38V34.74ZM126.272 36.084C125.992 36.084 125.759 35.9953 125.572 35.818C125.395 35.6313 125.306 35.412 125.306 35.16C125.306 34.8987 125.395 34.6793 125.572 34.502C125.759 34.3153 125.992 34.222 126.272 34.222C126.552 34.222 126.781 34.3153 126.958 34.502C127.135 34.6793 127.224 34.8987 127.224 35.16C127.224 35.412 127.135 35.6313 126.958 35.818C126.781 35.9953 126.552 36.084 126.272 36.084ZM126.272 30.75C125.992 30.75 125.759 30.6613 125.572 30.484C125.395 30.2973 125.306 30.078 125.306 29.826C125.306 29.5647 125.395 29.3453 125.572 29.168C125.759 28.9813 125.992 28.888 126.272 28.888C126.552 28.888 126.781 28.9813 126.958 29.168C127.135 29.3453 127.224 29.5647 127.224 29.826C127.224 30.078 127.135 30.2973 126.958 30.484C126.781 30.6613 126.552 30.75 126.272 30.75Z" fill="#333333"/>
<path d="M132.302 36V26.2H134.43L137.552 32.416L140.632 26.2H142.76V36H140.968V29.238L138.238 34.6H136.824L134.094 29.238V36H132.302ZM147.503 36L143.919 26.2H145.837L148.609 34.166L151.395 26.2H153.285L149.701 36H147.503ZM153.974 36L157.04 31.044L153.932 26.2H155.99L158.188 29.616L160.204 26.2H162.22L159.154 31.128L162.29 36H160.232L158.006 32.542L155.99 36H153.974ZM165.961 36V27.642H163.105V26.2H170.623V27.642H167.753V36H165.961ZM175.558 36.168C174.653 36.168 173.878 35.958 173.234 35.538C172.59 35.1087 172.091 34.516 171.736 33.76C171.391 32.9947 171.218 32.108 171.218 31.1C171.218 30.1013 171.391 29.2193 171.736 28.454C172.091 27.6887 172.59 27.096 173.234 26.676C173.878 26.2467 174.653 26.032 175.558 26.032C176.463 26.032 177.238 26.2467 177.882 26.676C178.526 27.096 179.021 27.6887 179.366 28.454C179.721 29.2193 179.898 30.1013 179.898 31.1C179.898 32.108 179.721 32.9947 179.366 33.76C179.021 34.516 178.526 35.1087 177.882 35.538C177.238 35.958 176.463 36.168 175.558 36.168ZM175.558 34.558C176.295 34.558 176.897 34.25 177.364 33.634C177.831 33.018 178.064 32.1733 178.064 31.1C178.064 30.0267 177.831 29.182 177.364 28.566C176.897 27.95 176.295 27.642 175.558 27.642C174.811 27.642 174.205 27.95 173.738 28.566C173.281 29.182 173.052 30.0267 173.052 31.1C173.052 32.1733 173.281 33.018 173.738 33.634C174.205 34.25 174.811 34.558 175.558 34.558ZM185.497 36.168C184.592 36.168 183.817 35.958 183.173 35.538C182.529 35.1087 182.03 34.516 181.675 33.76C181.33 32.9947 181.157 32.108 181.157 31.1C181.157 30.1013 181.33 29.2193 181.675 28.454C182.03 27.6887 182.529 27.096 183.173 26.676C183.817 26.2467 184.592 26.032 185.497 26.032C186.403 26.032 187.177 26.2467 187.821 26.676C188.465 27.096 188.96 27.6887 189.305 28.454C189.66 29.2193 189.837 30.1013 189.837 31.1C189.837 32.108 189.66 32.9947 189.305 33.76C188.96 34.516 188.465 35.1087 187.821 35.538C187.177 35.958 186.403 36.168 185.497 36.168ZM185.497 34.558C186.235 34.558 186.837 34.25 187.303 33.634C187.77 33.018 188.003 32.1733 188.003 31.1C188.003 30.0267 187.77 29.182 187.303 28.566C186.837 27.95 186.235 27.642 185.497 27.642C184.751 27.642 184.144 27.95 183.677 28.566C183.22 29.182 182.991 30.0267 182.991 31.1C182.991 32.1733 183.22 33.018 183.677 33.634C184.144 34.25 184.751 34.558 185.497 34.558ZM191.112 36V34.698C191.71 34.2033 192.288 33.7133 192.848 33.228C193.418 32.7427 193.922 32.262 194.36 31.786C194.808 31.31 195.163 30.848 195.424 30.4C195.695 29.9427 195.83 29.4993 195.83 29.07C195.83 28.6687 195.718 28.314 195.494 28.006C195.28 27.698 194.92 27.544 194.416 27.544C193.903 27.544 193.516 27.712 193.254 28.048C192.993 28.384 192.862 28.79 192.862 29.266H191.126C191.145 28.5473 191.304 27.95 191.602 27.474C191.901 26.9887 192.298 26.6293 192.792 26.396C193.287 26.1533 193.842 26.032 194.458 26.032C195.457 26.032 196.232 26.3073 196.782 26.858C197.342 27.3993 197.622 28.104 197.622 28.972C197.622 29.5133 197.496 30.0407 197.244 30.554C197.002 31.0673 196.68 31.562 196.278 32.038C195.877 32.514 195.443 32.962 194.976 33.382C194.51 33.7927 194.057 34.1753 193.618 34.53H197.86V36H191.112ZM202.554 36.168C201.91 36.168 201.327 36.056 200.804 35.832C200.282 35.5987 199.862 35.244 199.544 34.768C199.227 34.292 199.059 33.6947 199.04 32.976H200.804C200.814 33.452 200.968 33.8533 201.266 34.18C201.574 34.4973 202.004 34.656 202.554 34.656C203.077 34.656 203.478 34.5113 203.758 34.222C204.038 33.9327 204.178 33.5687 204.178 33.13C204.178 32.6167 203.992 32.2293 203.618 31.968C203.254 31.6973 202.783 31.562 202.204 31.562H201.476V30.092H202.218C202.694 30.092 203.091 29.98 203.408 29.756C203.726 29.532 203.884 29.2007 203.884 28.762C203.884 28.398 203.763 28.1087 203.52 27.894C203.287 27.67 202.96 27.558 202.54 27.558C202.083 27.558 201.724 27.6933 201.462 27.964C201.21 28.2347 201.07 28.566 201.042 28.958H199.292C199.33 28.0527 199.642 27.3387 200.23 26.816C200.828 26.2933 201.598 26.032 202.54 26.032C203.212 26.032 203.777 26.1533 204.234 26.396C204.701 26.6293 205.051 26.942 205.284 27.334C205.527 27.726 205.648 28.16 205.648 28.636C205.648 29.1867 205.494 29.6533 205.186 30.036C204.888 30.4093 204.514 30.6613 204.066 30.792C204.617 30.904 205.065 31.1747 205.41 31.604C205.756 32.024 205.928 32.556 205.928 33.2C205.928 33.7413 205.798 34.236 205.536 34.684C205.275 35.132 204.892 35.4913 204.388 35.762C203.894 36.0327 203.282 36.168 202.554 36.168ZM212.168 36V34.18H207.338V32.752L211.93 26.2H213.96V32.626H215.248V34.18H213.96V36H212.168ZM209.256 32.626H212.28V28.174L209.256 32.626Z" fill="#1C56F2"/>
<rect x="882" y="27" width="119" height="36" rx="8" fill="#FF8A00"/>
<path d="M899.82 49V41.632H897.336V40.6H903.564V41.632H901.092V49H899.82ZM904.074 49V43.048H905.214L905.322 44.176C905.53 43.784 905.818 43.476 906.186 43.252C906.562 43.02 907.014 42.904 907.542 42.904V44.236H907.194C906.842 44.236 906.526 44.296 906.246 44.416C905.974 44.528 905.754 44.724 905.586 45.004C905.426 45.276 905.346 45.656 905.346 46.144V49H904.074ZM910.648 49.144C910.144 49.144 909.728 49.06 909.4 48.892C909.072 48.724 908.828 48.504 908.668 48.232C908.508 47.952 908.428 47.648 908.428 47.32C908.428 46.744 908.652 46.288 909.1 45.952C909.548 45.616 910.188 45.448 911.02 45.448H912.58V45.34C912.58 44.876 912.452 44.528 912.196 44.296C911.948 44.064 911.624 43.948 911.224 43.948C910.872 43.948 910.564 44.036 910.3 44.212C910.044 44.38 909.888 44.632 909.832 44.968H908.56C908.6 44.536 908.744 44.168 908.992 43.864C909.248 43.552 909.568 43.316 909.952 43.156C910.344 42.988 910.772 42.904 911.236 42.904C912.068 42.904 912.712 43.124 913.168 43.564C913.624 43.996 913.852 44.588 913.852 45.34V49H912.748L912.64 47.98C912.472 48.308 912.228 48.584 911.908 48.808C911.588 49.032 911.168 49.144 910.648 49.144ZM910.9 48.112C911.244 48.112 911.532 48.032 911.764 47.872C912.004 47.704 912.188 47.484 912.316 47.212C912.452 46.94 912.536 46.64 912.568 46.312H911.152C910.648 46.312 910.288 46.4 910.072 46.576C909.864 46.752 909.76 46.972 909.76 47.236C909.76 47.508 909.86 47.724 910.06 47.884C910.268 48.036 910.548 48.112 910.9 48.112ZM918.155 49.144C917.571 49.144 917.047 49.012 916.583 48.748C916.127 48.484 915.767 48.12 915.503 47.656C915.247 47.184 915.119 46.64 915.119 46.024C915.119 45.408 915.247 44.868 915.503 44.404C915.767 43.932 916.127 43.564 916.583 43.3C917.047 43.036 917.571 42.904 918.155 42.904C918.891 42.904 919.507 43.096 920.003 43.48C920.507 43.864 920.831 44.384 920.975 45.04H919.643C919.563 44.712 919.387 44.456 919.115 44.272C918.843 44.088 918.523 43.996 918.155 43.996C917.843 43.996 917.555 44.076 917.291 44.236C917.027 44.388 916.815 44.616 916.655 44.92C916.495 45.216 916.415 45.584 916.415 46.024C916.415 46.464 916.495 46.836 916.655 47.14C916.815 47.436 917.027 47.664 917.291 47.824C917.555 47.984 917.843 48.064 918.155 48.064C918.523 48.064 918.843 47.972 919.115 47.788C919.387 47.604 919.563 47.344 919.643 47.008H920.975C920.839 47.648 920.519 48.164 920.015 48.556C919.511 48.948 918.891 49.144 918.155 49.144ZM922.355 49V40.36H923.627V45.508L925.907 43.048H927.431L924.899 45.748L927.803 49H926.195L923.627 45.952V49H922.355ZM934.632 49.144C934.016 49.144 933.476 49.036 933.012 48.82C932.548 48.604 932.184 48.296 931.92 47.896C931.664 47.496 931.532 47.02 931.524 46.468H932.868C932.876 46.916 933.032 47.296 933.336 47.608C933.64 47.92 934.068 48.076 934.62 48.076C935.108 48.076 935.488 47.96 935.76 47.728C936.04 47.488 936.18 47.184 936.18 46.816C936.18 46.52 936.112 46.28 935.976 46.096C935.848 45.912 935.668 45.76 935.436 45.64C935.212 45.52 934.952 45.412 934.656 45.316C934.36 45.22 934.048 45.116 933.72 45.004C933.072 44.788 932.584 44.508 932.256 44.164C931.936 43.82 931.776 43.368 931.776 42.808C931.768 42.336 931.876 41.924 932.1 41.572C932.332 41.22 932.652 40.948 933.06 40.756C933.476 40.556 933.96 40.456 934.512 40.456C935.056 40.456 935.532 40.556 935.94 40.756C936.356 40.956 936.68 41.236 936.912 41.596C937.144 41.948 937.264 42.36 937.272 42.832H935.928C935.928 42.616 935.872 42.412 935.76 42.22C935.648 42.02 935.484 41.856 935.268 41.728C935.052 41.6 934.788 41.536 934.476 41.536C934.076 41.528 933.744 41.628 933.48 41.836C933.224 42.044 933.096 42.332 933.096 42.7C933.096 43.028 933.192 43.28 933.384 43.456C933.576 43.632 933.84 43.78 934.176 43.9C934.512 44.012 934.896 44.144 935.328 44.296C935.744 44.432 936.116 44.596 936.444 44.788C936.772 44.98 937.032 45.232 937.224 45.544C937.424 45.856 937.524 46.252 937.524 46.732C937.524 47.156 937.416 47.552 937.2 47.92C936.984 48.28 936.66 48.576 936.228 48.808C935.796 49.032 935.264 49.144 934.632 49.144ZM938.867 49V40.36H940.139V44.008C940.339 43.664 940.615 43.396 940.967 43.204C941.327 43.004 941.723 42.904 942.155 42.904C942.867 42.904 943.427 43.128 943.835 43.576C944.243 44.024 944.447 44.692 944.447 45.58V49H943.187V45.712C943.187 44.56 942.727 43.984 941.807 43.984C941.327 43.984 940.927 44.152 940.607 44.488C940.295 44.824 940.139 45.304 940.139 45.928V49H938.867ZM946.665 41.92C946.425 41.92 946.225 41.848 946.065 41.704C945.913 41.552 945.837 41.364 945.837 41.14C945.837 40.916 945.913 40.732 946.065 40.588C946.225 40.436 946.425 40.36 946.665 40.36C946.905 40.36 947.101 40.436 947.253 40.588C947.413 40.732 947.493 40.916 947.493 41.14C947.493 41.364 947.413 41.552 947.253 41.704C947.101 41.848 946.905 41.92 946.665 41.92ZM946.029 49V43.048H947.301V49H946.029ZM948.98 51.64V43.048H950.12L950.252 43.972C950.444 43.692 950.708 43.444 951.044 43.228C951.38 43.012 951.812 42.904 952.34 42.904C952.916 42.904 953.424 43.04 953.864 43.312C954.304 43.584 954.648 43.956 954.896 44.428C955.152 44.9 955.28 45.436 955.28 46.036C955.28 46.636 955.152 47.172 954.896 47.644C954.648 48.108 954.304 48.476 953.864 48.748C953.424 49.012 952.912 49.144 952.328 49.144C951.864 49.144 951.452 49.052 951.092 48.868C950.74 48.684 950.46 48.424 950.252 48.088V51.64H948.98ZM952.112 48.04C952.656 48.04 953.104 47.856 953.456 47.488C953.808 47.112 953.984 46.624 953.984 46.024C953.984 45.632 953.904 45.284 953.744 44.98C953.584 44.676 953.364 44.44 953.084 44.272C952.804 44.096 952.48 44.008 952.112 44.008C951.568 44.008 951.12 44.196 950.768 44.572C950.424 44.948 950.252 45.432 950.252 46.024C950.252 46.624 950.424 47.112 950.768 47.488C951.12 47.856 951.568 48.04 952.112 48.04ZM956.656 49V43.048H957.784L957.892 43.888C958.084 43.584 958.336 43.344 958.648 43.168C958.968 42.992 959.336 42.904 959.752 42.904C960.696 42.904 961.352 43.276 961.72 44.02C961.936 43.676 962.224 43.404 962.584 43.204C962.952 43.004 963.348 42.904 963.772 42.904C964.516 42.904 965.1 43.128 965.524 43.576C965.948 44.024 966.16 44.692 966.16 45.58V49H964.888V45.712C964.888 44.56 964.448 43.984 963.568 43.984C963.12 43.984 962.752 44.152 962.464 44.488C962.184 44.824 962.044 45.304 962.044 45.928V49H960.772V45.712C960.772 44.56 960.328 43.984 959.44 43.984C959 43.984 958.636 44.152 958.348 44.488C958.068 44.824 957.928 45.304 957.928 45.928V49H956.656ZM970.432 49.144C969.848 49.144 969.328 49.016 968.872 48.76C968.424 48.496 968.072 48.132 967.816 47.668C967.56 47.204 967.432 46.664 967.432 46.048C967.432 45.424 967.556 44.876 967.804 44.404C968.06 43.932 968.412 43.564 968.86 43.3C969.316 43.036 969.844 42.904 970.444 42.904C971.028 42.904 971.536 43.036 971.968 43.3C972.4 43.556 972.736 43.9 972.976 44.332C973.216 44.764 973.336 45.24 973.336 45.76C973.336 45.84 973.332 45.928 973.324 46.024C973.324 46.112 973.32 46.212 973.312 46.324H968.68C968.72 46.9 968.908 47.34 969.244 47.644C969.588 47.94 969.984 48.088 970.432 48.088C970.792 48.088 971.092 48.008 971.332 47.848C971.58 47.68 971.764 47.456 971.884 47.176H973.156C972.996 47.736 972.676 48.204 972.196 48.58C971.724 48.956 971.136 49.144 970.432 49.144ZM970.432 43.948C970.008 43.948 969.632 44.076 969.304 44.332C968.976 44.58 968.776 44.956 968.704 45.46H972.064C972.04 44.996 971.876 44.628 971.572 44.356C971.268 44.084 970.888 43.948 970.432 43.948ZM974.656 49V43.048H975.784L975.88 44.092C976.064 43.724 976.332 43.436 976.684 43.228C977.044 43.012 977.456 42.904 977.92 42.904C978.64 42.904 979.204 43.128 979.612 43.576C980.028 44.024 980.236 44.692 980.236 45.58V49H978.976V45.712C978.976 44.56 978.504 43.984 977.56 43.984C977.088 43.984 976.696 44.152 976.384 44.488C976.08 44.824 975.928 45.304 975.928 45.928V49H974.656ZM984.23 49C983.646 49 983.182 48.86 982.838 48.58C982.494 48.292 982.322 47.784 982.322 47.056V44.116H981.302V43.048H982.322L982.478 41.536H983.594V43.048H985.274V44.116H983.594V47.056C983.594 47.384 983.662 47.612 983.798 47.74C983.942 47.86 984.186 47.92 984.53 47.92H985.214V49H984.23Z" fill="white"/>
</svg>
