<svg width="28" height="28" viewBox="0 0 28 28" fill="none" xmlns="http://www.w3.org/2000/svg">
<circle opacity="0.1" cx="14" cy="14" r="14" fill="#F90000"/>
<path d="M13.7197 10.075C11.7102 10.075 10.0748 11.7103 10.0748 13.7198C10.0748 15.7293 11.7102 17.3647 13.7197 17.3647C15.7292 17.3647 17.3645 15.7293 17.3645 13.7198C17.3645 11.7103 15.7292 10.075 13.7197 10.075ZM13.7197 16.1497C12.3796 16.1497 11.2898 15.0599 11.2898 13.7198C11.2898 12.3797 12.3796 11.2899 13.7197 11.2899C15.0598 11.2899 16.1496 12.3797 16.1496 13.7198C16.1496 15.0599 15.0598 16.1497 13.7197 16.1497Z" fill="#F90000"/>
<path d="M22.8318 13.1122H20.979C20.685 9.57664 17.8626 6.7543 14.3271 6.46028V4.60748C14.3271 4.27215 14.055 4 13.7196 4C13.3843 4 13.1122 4.27215 13.1122 4.60748V6.46028C9.57664 6.7543 6.7543 9.57785 6.46028 13.1122H4.60748C4.27215 13.1122 4 13.3843 4 13.7196C4 14.055 4.27215 14.3271 4.60748 14.3271H6.46028C6.7543 17.8626 9.57664 20.685 13.1122 20.979V22.8318C13.1122 23.1671 13.3843 23.4393 13.7196 23.4393C14.055 23.4393 14.3271 23.1671 14.3271 22.8318V20.979C17.8626 20.685 20.685 17.8626 20.979 14.3271H22.8318C23.1671 14.3271 23.4393 14.0562 23.4393 13.7196C23.4393 13.3855 23.1671 13.1122 22.8318 13.1122ZM13.7196 19.7944C10.37 19.7944 7.64486 17.0693 7.64486 13.7196C7.64486 10.37 10.37 7.64486 13.7196 7.64486C17.0693 7.64486 19.7944 10.37 19.7944 13.7196C19.7944 17.0693 17.0693 19.7944 13.7196 19.7944Z" fill="#F90000"/>
</svg>
